<svg width="200" height="39" viewBox="0 0 200 39" fill="none" xmlns="http://www.w3.org/2000/svg">
<path d="M25.5798 14.3559C26.8542 15.5158 27.5464 16.9538 27.6562 18.6698C27.7881 20.3699 27.3157 22.1098 26.239 23.8894C24.635 26.5747 22.0972 28.7356 18.6255 30.3722C15.1538 32.0246 11.1438 32.9701 6.59545 33.2084C6.59545 33.2084 6.58447 33.2084 6.5625 33.2084C6.38671 33.2084 6.23291 33.1687 6.10107 33.0892C5.99121 33.0098 5.93627 32.9065 5.93627 32.7794C5.9143 32.6523 5.95825 32.541 6.06811 32.4457C6.19995 32.3504 6.34277 32.3027 6.49658 32.3027C10.8032 32.0803 14.5935 31.1905 17.8674 29.6333C21.1633 28.0921 23.5693 26.0583 25.0854 23.5319C26.0742 21.8953 26.5137 20.3064 26.4038 18.7651C26.3159 17.2239 25.7117 15.9448 24.591 14.9279C23.3606 13.8315 21.6687 13.1801 19.5154 12.9735C17.6477 14.3718 15.4175 15.6747 12.8247 16.8823C10.2319 18.0898 8.23242 18.7572 6.82617 18.8843C4.32129 27.9252 2.91504 33.5977 2.60742 35.9016C2.65137 35.8222 2.69531 35.7427 2.73926 35.6633C2.80517 35.5362 2.91504 35.4488 3.06885 35.4011C3.24463 35.3534 3.40942 35.3534 3.56323 35.4011C3.73901 35.4488 3.85986 35.5282 3.92578 35.6394C3.9917 35.7665 3.9917 35.8857 3.92578 35.9969C3.55224 36.6643 3.23364 37.133 2.96997 37.4031C2.72827 37.6891 2.4646 37.8321 2.17895 37.8321C2.09106 37.8321 2.00317 37.8163 1.91528 37.7845C1.67358 37.7368 1.50879 37.6176 1.4209 37.427C1.33301 37.2522 1.30005 36.8232 1.32202 36.1399C1.36597 35.4726 1.54175 34.4636 1.84936 33.1131C2.15698 31.7625 2.60742 29.9114 3.20068 27.5598C3.81592 25.2082 4.61792 22.2449 5.60669 18.6698C5.29907 18.4632 5.20019 18.1852 5.31005 17.8356C5.52978 17.2636 5.85937 16.7154 6.29882 16.1911C6.69433 14.7769 7.1228 13.2277 7.58422 11.5435C8.9685 6.66551 9.86938 3.41617 10.2869 1.79548C9.25414 1.98615 8.28735 2.24832 7.38647 2.58199C5.78247 3.13811 4.47509 3.86107 3.46435 4.75087C2.47558 5.62477 1.8164 6.6099 1.48682 7.70625C1.1792 8.78672 1.21216 9.97046 1.58569 11.2575C1.62964 11.3846 1.59668 11.5038 1.48682 11.615C1.39892 11.7103 1.26709 11.7739 1.09131 11.8057C0.937499 11.8374 0.783691 11.8216 0.629882 11.758C0.476074 11.6785 0.388183 11.5753 0.366211 11.4482C-0.292969 9.31901 -0.0622559 7.4123 1.05835 5.72805C2.20093 4.02791 4.12353 2.70116 6.82617 1.74781C7.99072 1.33469 9.23217 1.02485 10.5505 0.818293C10.5945 0.627623 10.6384 0.476676 10.6824 0.365451C10.6824 0.286005 10.7153 0.214505 10.7812 0.150949C10.8691 0.0873908 10.968 0.0476679 11.0779 0.0317798C11.1877 0 11.2976 -0.00794496 11.4075 0.00794496C11.5832 0.0238349 11.7151 0.0873917 11.803 0.198616C11.9128 0.29395 11.9458 0.405175 11.9018 0.532288C11.9018 0.548177 11.9018 0.572011 11.9018 0.603789C11.9018 0.619678 11.9018 0.627622 11.9018 0.627622C14.165 0.389286 16.3074 0.468732 18.3288 0.865961C20.3723 1.26319 21.9214 1.93054 22.9761 2.868C23.6133 3.42412 24.0307 4.03585 24.2285 4.7032C24.4482 5.37054 24.4922 6.00611 24.3603 6.6099C24.2505 7.21369 24.0088 7.84926 23.6352 8.5166C23.2617 9.16806 22.8662 9.73212 22.4487 10.2088C22.0532 10.6855 21.6138 11.1542 21.1304 11.615C20.9546 11.8057 20.7458 11.9963 20.5041 12.187C22.6355 12.5048 24.3274 13.2277 25.5798 14.3559ZM7.08984 17.9309C8.23242 17.6926 9.88036 17.0968 12.0337 16.1434C14.187 15.1901 16.1206 14.1175 17.8345 12.9258C16.9775 12.9258 16.0766 12.9974 15.1318 13.1404C13.6157 13.3628 12.1545 13.76 10.7483 14.332C9.36401 14.9041 8.27636 15.635 7.48535 16.5247C7.33154 17.0968 7.1997 17.5655 7.08984 17.9309ZM19.021 12.0202C19.4385 11.7024 19.812 11.3846 20.1416 11.0668C21.7456 9.49379 22.7124 8.05582 23.042 6.7529C23.3716 5.44999 23.031 4.35364 22.0202 3.46384C21.0535 2.62172 19.6142 2.03382 17.7026 1.70014C15.791 1.36647 13.7695 1.33469 11.6382 1.60481C11.2207 3.24139 10.2869 6.6099 8.83666 11.7103C8.50707 12.8702 8.23242 13.8554 8.01269 14.6657C9.81445 13.4422 12.1106 12.6319 14.9011 12.2347C16.3513 12.0281 17.7246 11.9566 19.021 12.0202Z" fill="black"/>
<path d="M43.9549 18.789C44.1307 18.7413 44.2955 18.7492 44.4493 18.8128C44.6031 18.8605 44.702 18.9478 44.746 19.075C44.8119 19.1862 44.8119 19.2974 44.746 19.4086C42.3949 22.9201 40.2965 24.6759 38.4508 24.6759C38.3409 24.6759 38.2201 24.668 38.0883 24.6521C36.6161 24.4455 35.7042 23.0155 35.3527 20.362C34.276 21.4107 33.3202 22.2687 32.4852 22.936C31.7382 23.508 31.101 23.7067 30.5736 23.5319C30.0463 23.3889 29.7936 22.9758 29.8156 22.2925C29.8156 21.7205 29.9913 21.0373 30.3429 20.2428C30.6945 19.4484 31.2108 18.6777 31.892 17.9309C32.5731 17.1842 33.3092 16.7154 34.1002 16.5247C35.2648 16.2229 36.3414 16.5009 37.3302 17.3589C37.4401 17.4543 37.484 17.5655 37.462 17.6926C37.462 17.8197 37.3961 17.923 37.2643 18.0024C37.1324 18.0819 36.9786 18.1216 36.8029 18.1216C36.6271 18.1057 36.4842 18.0501 36.3744 17.9548C35.6053 17.2874 34.8253 17.1603 34.0343 17.5734C33.1334 18.0342 32.3754 18.8684 31.7601 20.076C31.1669 21.2677 30.9362 22.1177 31.068 22.6262C31.1998 22.5467 31.3536 22.4435 31.5294 22.3164C32.4083 21.6331 33.485 20.6559 34.7594 19.3848C35.045 19.0988 35.2428 18.9002 35.3527 18.789C35.5284 18.6301 35.7592 18.5824 36.0448 18.646C36.3304 18.6936 36.4843 18.8287 36.5062 19.0511C36.5502 19.8297 36.6381 20.5209 36.7699 21.1247C36.9017 21.7285 37.0336 22.1892 37.1654 22.507C37.2972 22.8089 37.451 23.0631 37.6268 23.2697C37.8026 23.4763 37.9344 23.6113 38.0223 23.6749C38.1322 23.7226 38.2421 23.7464 38.3519 23.7464C38.6595 23.7941 39.0441 23.6908 39.5055 23.4365C39.9889 23.1664 40.5931 22.658 41.3182 21.9112C42.0653 21.1485 42.8234 20.1872 43.5924 19.0273C43.6803 18.9002 43.8011 18.8207 43.9549 18.789Z" fill="black"/>
<path d="M53.7038 18.6221C53.8796 18.5903 54.0334 18.6142 54.1653 18.6936C54.3191 18.7572 54.418 18.8525 54.4619 18.9796C54.5058 19.1067 54.4729 19.218 54.363 19.3133C53.6379 20.1237 53.0007 20.8069 52.4514 21.363C51.9241 21.9191 51.3198 22.515 50.6387 23.1505C49.9575 23.7702 49.3313 24.2628 48.76 24.6282C48.2107 25.0096 47.6284 25.3194 47.0132 25.5578C46.3979 25.812 45.8157 25.9391 45.2664 25.9391C45.0686 25.9391 44.8708 25.9232 44.6731 25.8914C43.8821 25.7643 43.2778 25.4306 42.8604 24.8904C42.4209 24.1754 42.2341 23.3968 42.3 22.5547C42.344 21.6967 42.5747 20.8546 42.9922 20.0283C43.4316 19.1544 43.981 18.4791 44.6401 18.0024C45.3213 17.5258 45.9585 17.3589 46.5518 17.5019C46.6836 17.5337 46.8044 17.5814 46.9143 17.6449C47.0242 17.6926 47.156 17.8038 47.3098 17.9786C47.4636 18.1375 47.5405 18.352 47.5405 18.6221C47.5405 18.8922 47.4746 19.2418 47.3428 19.6708C47.2988 19.7979 47.1999 19.8933 47.0461 19.9568C46.9143 20.0204 46.7605 20.0363 46.5847 20.0045C46.4089 19.9727 46.2771 19.9012 46.1892 19.79C46.1013 19.6788 46.0793 19.5675 46.1233 19.4563C46.343 18.8525 46.354 18.4871 46.1562 18.36C46.0684 18.36 45.9255 18.4076 45.7278 18.503C45.552 18.5983 45.3103 18.8128 45.0027 19.1465C44.6951 19.4642 44.4204 19.8694 44.1787 20.362C43.7832 21.1088 43.5635 21.8715 43.5195 22.65C43.4976 23.4127 43.6514 24.0086 43.981 24.4376C44.2007 24.7395 44.5193 24.9222 44.9368 24.9857C45.3103 25.0493 45.7278 25.0096 46.1892 24.8666C46.6726 24.7236 47.178 24.4693 47.7053 24.1039C48.2546 23.7225 48.749 23.3571 49.1885 23.0075C49.6279 22.6421 50.1333 22.1654 50.7046 21.5775C51.2978 20.9737 51.7483 20.5129 52.0559 20.1952C52.3635 19.8615 52.781 19.4007 53.3083 18.8128C53.3962 18.7175 53.5281 18.6539 53.7038 18.6221Z" fill="black"/>
<path d="M66.7523 18.6936C66.928 18.6618 67.0818 18.6777 67.2137 18.7413C67.3675 18.8048 67.4664 18.9002 67.5103 19.0273C67.5543 19.1544 67.5323 19.2656 67.4444 19.361C66.2139 20.8069 64.522 22.2051 62.3687 23.5557C60.2154 24.8904 58.3917 25.5578 56.8975 25.5578C56.7217 25.5578 56.5569 25.5498 56.4031 25.5339C55.3484 25.3909 54.7003 24.8427 54.4586 23.8894C54.4146 23.7464 54.4476 23.6193 54.5574 23.508C54.6893 23.3809 54.9529 23.1982 55.3484 22.9599C56.1614 22.4514 56.7547 22.0224 57.1282 21.6728C57.3919 21.4186 57.6116 21.1564 57.7874 20.8863C57.9632 20.6003 58.0731 20.3699 58.117 20.1952C58.1609 20.0045 58.1609 19.8535 58.117 19.7423C57.6116 19.8853 56.9525 20.4176 56.1395 21.3392C55.5462 22.0065 54.942 22.8407 54.3267 23.8417C53.7335 24.8427 53.283 25.6769 52.9754 26.3443C52.6678 27.0116 52.2613 27.9252 51.7559 29.0851L51.5911 29.4188C51.5032 29.6254 51.3055 29.7287 50.9979 29.7287C50.9539 29.7287 50.921 29.7287 50.899 29.7287C50.7891 29.7128 50.7012 29.681 50.6353 29.6333C50.5474 29.6015 50.4815 29.5459 50.4376 29.4665C50.3936 29.4029 50.3716 29.3314 50.3716 29.252C50.3716 28.9024 50.9429 26.8845 52.0855 23.1982C53.2061 19.5119 54.3157 15.9686 55.4144 12.5683C55.4363 12.5366 55.4473 12.4968 55.4473 12.4492C55.8428 11.2575 56.1505 10.328 56.3702 9.66062C57.1172 7.46792 57.9742 5.60094 58.941 4.05969C59.9297 2.51844 60.7867 1.6922 61.5118 1.58097C61.8633 1.53331 62.149 1.6207 62.3687 1.84315C62.6104 2.0497 62.6434 2.47871 62.4676 3.13017C62.3138 3.78163 61.9952 4.57608 61.5118 5.51355C61.0284 6.45101 60.3692 7.54736 59.5342 8.80261C58.6993 10.042 57.7435 11.3687 56.6668 12.7828C55.5901 16.0719 54.5135 19.4881 53.4368 23.0314C53.9642 22.1892 54.5025 21.4583 55.0518 20.8387C56.3043 19.4404 57.3809 18.7651 58.2818 18.8128C58.7432 18.8446 59.0618 19.0194 59.2376 19.3371C59.4573 19.6708 59.4573 20.1157 59.2376 20.6718C59.0179 21.2121 58.6443 21.7364 58.117 22.2449C57.6995 22.6262 57.0513 23.0949 56.1724 23.651C55.9747 23.7782 55.8428 23.8656 55.7769 23.9132C55.9307 24.3263 56.2164 24.5647 56.6338 24.6282C57.6226 24.7553 59.1497 24.2231 61.2151 23.0314C63.3025 21.8397 65.0164 20.4573 66.3567 18.8843C66.4446 18.7731 66.5765 18.7095 66.7523 18.6936ZM61.2481 2.91566C60.0616 4.17091 58.941 6.24445 57.8863 9.13628C59.7979 6.32389 60.9185 4.25036 61.2481 2.91566Z" fill="black"/>
<path d="M89.9649 18.6936C90.1407 18.646 90.3055 18.6539 90.4593 18.7175C90.6131 18.7651 90.7229 18.8525 90.7889 18.9796C90.8548 19.0909 90.8438 19.2021 90.7559 19.3133C90.1626 20.2349 89.4925 21.1803 88.7454 22.1495C87.9983 23.1188 87.1744 24.0959 86.2735 25.0811C85.3946 26.0821 84.5157 26.8924 83.6368 27.5121C82.7579 28.1477 82.0108 28.4655 81.3956 28.4655C81.2417 28.4655 81.0989 28.4416 80.9671 28.394C80.0662 28.1397 79.7806 27.1546 80.1102 25.4386C80.4178 23.8338 81.2308 21.5616 82.5491 18.6221C82.5271 18.6221 82.5052 18.6301 82.4832 18.646C82.4832 18.646 82.4722 18.646 82.4502 18.646C81.9668 18.8843 81.5603 19.067 81.2308 19.1941C80.9231 19.3212 80.4947 19.4642 79.9454 19.6231C79.418 19.782 78.9126 19.8535 78.4292 19.8376C77.9458 19.8218 77.4954 19.7105 77.0779 19.504C76.243 19.075 75.8145 18.4791 75.7925 17.7164C75.7706 16.9538 76.1661 16.1196 76.979 15.2139C77.4844 14.6419 78.0887 14.1414 78.7918 13.7124C79.5169 13.2834 80.1321 13.188 80.6375 13.4264C80.9451 13.5535 81.1209 13.76 81.1648 14.046C81.2308 14.332 81.044 14.8882 80.6045 15.7144C80.1651 16.5247 79.429 17.5893 78.3963 18.9081C79.0774 18.9717 80.198 18.6301 81.7581 17.8833C82.0437 17.7403 82.2525 17.6449 82.3843 17.5973C82.5381 17.5337 82.7029 17.4702 82.8787 17.4066C83.0765 17.343 83.2413 17.3192 83.3731 17.3351C83.5049 17.351 83.6368 17.3907 83.7686 17.4543C84.0982 17.6449 84.1531 17.9786 83.9334 18.4553C81.7361 23.3809 80.8682 26.3681 81.3296 27.4168C81.3736 27.4803 81.4065 27.528 81.4285 27.5598C81.6043 27.5757 81.868 27.4724 82.2195 27.2499C82.5931 27.0275 83.0435 26.6779 83.5708 26.2013C84.1202 25.7246 84.7024 25.1526 85.3177 24.4852C85.9549 23.8179 86.647 22.9996 87.3941 22.0304C88.1631 21.0611 88.8992 20.0283 89.6023 18.932C89.6902 18.8048 89.8111 18.7254 89.9649 18.6936ZM77.1768 17.0729C76.979 17.629 77.023 18.0739 77.3086 18.4076C78.9126 16.3897 79.7696 15.0232 79.8794 14.3082C79.6158 14.4194 79.3082 14.6022 78.9566 14.8564C78.627 15.1106 78.2754 15.4443 77.9019 15.8574C77.5503 16.2546 77.3086 16.6598 77.1768 17.0729Z" fill="black"/>
<path d="M100.624 18.8128C100.8 18.7969 100.954 18.8287 101.086 18.9081C101.24 18.9876 101.327 19.0909 101.349 19.218C101.371 19.3451 101.327 19.4563 101.218 19.5516C100.317 20.3938 99.24 21.0532 97.9876 21.5298C96.7351 22.0065 95.5596 22.1575 94.4609 21.9827C94.1533 22.5229 93.7249 22.9519 93.1756 23.2697C92.6262 23.5716 92.0549 23.7225 91.4617 23.7225H91.4287C90.8355 23.7067 90.3081 23.5637 89.8467 23.2935C89.4072 23.0075 89.0996 22.6183 88.9238 22.1257C88.6382 21.3471 88.6931 20.6083 89.0886 19.9091C89.4622 19.1941 90.0115 18.6698 90.7366 18.3361C90.8904 18.2567 91.0662 18.2408 91.2639 18.2884C91.4617 17.9389 91.7363 17.6688 92.0879 17.4781C92.4614 17.2874 92.846 17.2159 93.2415 17.2636C93.4612 17.2954 93.6589 17.3669 93.8347 17.4781C94.0325 17.5734 94.2193 17.7323 94.395 17.9548C94.5928 18.1772 94.7356 18.5188 94.8235 18.9796C94.9114 19.4404 94.9334 19.9886 94.8894 20.6242C94.8674 20.7831 94.8345 20.9419 94.7905 21.1008C95.6255 21.2279 96.5484 21.077 97.5591 20.648C98.5918 20.219 99.4707 19.6629 100.196 18.9796C100.306 18.8843 100.448 18.8287 100.624 18.8128ZM91.4617 22.793C91.7693 22.793 92.0879 22.6898 92.4175 22.4832C92.7691 22.2766 93.0547 21.9986 93.2744 21.649C91.8462 21.077 91.0991 20.2984 91.0332 19.3133C90.5938 19.6152 90.2861 20.0204 90.1104 20.5288C89.9566 21.0373 89.9675 21.4822 90.1433 21.8635C90.385 22.4832 90.8245 22.793 91.4617 22.793ZM93.604 20.5765C93.648 20.1952 93.648 19.8694 93.604 19.5993C93.582 19.3133 93.5491 19.0829 93.5051 18.9081C93.4612 18.7333 93.4063 18.5903 93.3403 18.4791C93.2744 18.3679 93.2085 18.2885 93.1426 18.2408C93.0986 18.1931 93.0657 18.1693 93.0437 18.1693H93.0107C92.9229 18.1693 92.813 18.2249 92.6812 18.3361C92.5493 18.4315 92.4504 18.5665 92.3845 18.7413C92.2527 19.075 92.2747 19.4166 92.4505 19.7661C92.6262 20.1157 93.0107 20.4335 93.604 20.7195C93.604 20.6718 93.604 20.6242 93.604 20.5765Z" fill="black"/>
<path d="M111.181 18.8128C111.357 18.7969 111.511 18.8287 111.643 18.9081C111.797 18.9876 111.885 19.0909 111.907 19.218C111.929 19.3451 111.885 19.4563 111.775 19.5516C110.874 20.3938 109.797 21.0532 108.545 21.5298C107.292 22.0065 106.117 22.1575 105.018 21.9827C104.71 22.5229 104.282 22.9519 103.733 23.2697C103.183 23.5716 102.612 23.7225 102.019 23.7225H101.986C101.393 23.7067 100.865 23.5637 100.404 23.2935C99.9644 23.0075 99.6568 22.6183 99.481 22.1257C99.1954 21.3471 99.2503 20.6083 99.6458 19.9091C100.019 19.1941 100.569 18.6698 101.294 18.3361C101.448 18.2567 101.623 18.2408 101.821 18.2884C102.019 17.9389 102.294 17.6688 102.645 17.4781C103.019 17.2874 103.403 17.2159 103.799 17.2636C104.018 17.2954 104.216 17.3669 104.392 17.4781C104.59 17.5734 104.776 17.7323 104.952 17.9548C105.15 18.1772 105.293 18.5188 105.381 18.9796C105.469 19.4404 105.491 19.9886 105.447 20.6242C105.425 20.7831 105.392 20.9419 105.348 21.1008C106.183 21.2279 107.106 21.077 108.116 20.648C109.149 20.219 110.028 19.6629 110.753 18.9796C110.863 18.8843 111.006 18.8287 111.181 18.8128ZM102.019 22.793C102.326 22.793 102.645 22.6898 102.975 22.4832C103.326 22.2766 103.612 21.9986 103.832 21.649C102.403 21.077 101.656 20.2984 101.59 19.3133C101.151 19.6152 100.843 20.0204 100.668 20.5288C100.514 21.0373 100.525 21.4822 100.7 21.8635C100.942 22.4832 101.382 22.793 102.019 22.793ZM104.161 20.5765C104.205 20.1952 104.205 19.8694 104.161 19.5993C104.139 19.3133 104.106 19.0829 104.062 18.9081C104.018 18.7333 103.963 18.5903 103.898 18.4791C103.832 18.3679 103.766 18.2885 103.7 18.2408C103.656 18.1931 103.623 18.1693 103.601 18.1693H103.568C103.48 18.1693 103.37 18.2249 103.238 18.3361C103.106 18.4315 103.008 18.5665 102.942 18.7413C102.81 19.075 102.832 19.4166 103.008 19.7661C103.183 20.1157 103.568 20.4335 104.161 20.7195C104.161 20.6718 104.161 20.6242 104.161 20.5765Z" fill="black"/>
<path d="M138.086 10.042C138.196 10.1373 138.24 10.2485 138.218 10.3756C138.196 10.5027 138.108 10.606 137.954 10.6855C137.691 10.8126 137.438 10.8046 137.196 10.6616C136.142 10.3915 128.737 10.3677 114.982 10.5901C113.554 14.9279 112.104 19.6311 110.631 24.6997C108.874 30.8171 107.808 35.0198 107.434 37.3078C107.478 37.3078 107.522 37.3157 107.566 37.3316C107.742 37.3634 107.863 37.4349 107.929 37.5461C107.995 37.6733 107.995 37.7924 107.929 37.9036C107.819 38.1579 107.731 38.3406 107.665 38.4518C107.577 38.5789 107.456 38.6981 107.303 38.8093C107.149 38.9364 106.984 39 106.808 39C106.742 39 106.665 38.9921 106.577 38.9762C106.292 38.9126 106.127 38.7458 106.083 38.4757C106.017 38.2055 106.039 37.8401 106.149 37.3793C106.237 36.712 106.435 35.7507 106.742 34.4954C107.292 32.112 108.116 29.0136 109.214 25.2002C110.686 20.0521 112.17 15.1901 113.664 10.614C112.17 10.6299 110.313 10.6616 108.094 10.7093C104.578 10.7729 102.513 10.8046 101.897 10.8046C101.722 10.8046 101.579 10.7649 101.469 10.6855C101.337 10.5901 101.271 10.4789 101.271 10.3518C101.271 10.2724 101.304 10.2009 101.37 10.1373C101.414 10.0579 101.491 10.0022 101.601 9.97046C101.689 9.92279 101.787 9.89896 101.897 9.89896C102.513 9.89896 104.567 9.85924 108.061 9.77979C110.236 9.74801 112.213 9.71624 113.993 9.68446C114.696 7.58708 115.323 5.8075 115.872 4.34569C115.916 4.21858 116.015 4.12324 116.169 4.05969C116.322 3.99613 116.476 3.98024 116.63 4.01202C116.806 4.0438 116.938 4.1153 117.025 4.22652C117.113 4.33775 117.135 4.45692 117.091 4.58403C116.564 5.99817 115.96 7.69036 115.279 9.66062C121.87 9.53351 126.847 9.48584 130.209 9.51762C133.571 9.5494 135.68 9.60501 136.537 9.68446C137.416 9.74801 137.932 9.86718 138.086 10.042Z" fill="black"/>
<path d="M125.325 18.7175C125.501 18.6857 125.655 18.7095 125.786 18.789C125.94 18.8525 126.028 18.9478 126.05 19.075C126.072 19.2021 126.039 19.3133 125.951 19.4086C123.468 21.9191 121.205 23.6987 119.162 24.7474C118.349 25.1605 117.547 25.3671 116.756 25.3671C116.14 25.3671 115.602 25.2479 115.141 25.0096C114.877 24.8666 114.646 24.6759 114.448 24.4376C114.229 24.1992 114.042 23.8656 113.888 23.4365C113.734 23.0075 113.712 22.4435 113.822 21.7443C113.91 21.0452 114.152 20.2508 114.547 19.361V19.3371C115.163 17.8912 115.91 16.7472 116.789 15.9051C117.667 15.0629 118.459 14.6339 119.162 14.618C119.667 14.6022 119.997 14.7611 120.15 15.0947C120.392 15.5555 120.106 16.207 119.293 17.0491C118.48 17.8912 117.283 18.7969 115.701 19.7661C115.437 20.3858 115.251 20.9578 115.141 21.4822C115.031 22.0065 114.987 22.4276 115.009 22.7454C115.053 23.0473 115.13 23.3174 115.24 23.5557C115.371 23.7782 115.481 23.9371 115.569 24.0324C115.679 24.1277 115.789 24.2072 115.899 24.2707C116.558 24.6203 117.404 24.525 118.437 23.9847C120.37 22.9996 122.523 21.2994 124.896 18.8843C125.006 18.789 125.149 18.7333 125.325 18.7175ZM118.931 15.6191C118.162 15.9686 117.404 16.7234 116.657 17.8833C117.931 16.9617 118.689 16.207 118.931 15.6191Z" fill="black"/>
<path d="M138.311 4.20269C138.883 4.61581 138.597 6.07761 137.454 8.5881C137.366 8.77877 137.246 9.04095 137.092 9.37462C136.608 10.4392 136.213 11.2893 135.905 11.9248C135.598 12.5604 135.114 13.4502 134.455 14.5942C133.796 15.7382 133.082 16.8346 132.313 17.8833C131.676 20.076 131.071 22.4117 130.5 24.8904C129.511 29.1328 128.984 32.0088 128.918 33.5182C129.094 33.4706 129.27 33.4706 129.445 33.5182C129.599 33.5818 129.698 33.6692 129.742 33.7804C129.808 33.9075 129.808 34.0267 129.742 34.1379C129.346 34.7417 128.951 35.0436 128.555 35.0436C128.468 35.0436 128.38 35.0356 128.292 35.0198C128.05 34.9562 127.874 34.837 127.764 34.6623C127.677 34.5034 127.633 34.1538 127.633 33.6136C127.655 33.0892 127.753 32.3107 127.929 31.2779C128.193 29.6254 128.632 27.4486 129.248 24.7474C129.599 23.2697 129.962 21.8317 130.335 20.4335C129.654 21.2279 128.929 22.0224 128.16 22.8169C126.71 24.3422 125.446 24.8904 124.37 24.4614C123.667 24.0959 123.326 23.4524 123.348 22.5309C123.37 21.5934 123.688 20.648 124.304 19.6946C125.029 18.5824 125.886 17.7641 126.875 17.2398C127.863 16.7154 128.742 16.5406 129.511 16.7154C130.28 16.8743 130.72 17.2874 130.83 17.9548C130.939 17.8277 131.038 17.7006 131.126 17.5734C132.291 13.5853 133.455 10.3836 134.62 7.96842C135.806 5.53738 136.773 4.23447 137.52 4.05969C137.828 3.98024 138.092 4.02791 138.311 4.20269ZM127.138 22.2925C128.171 21.2121 129.116 20.1316 129.973 19.0511C129.643 18.9717 129.511 18.8128 129.577 18.5745C129.665 17.9866 129.522 17.6529 129.149 17.5734C129.105 17.5734 129.039 17.5734 128.951 17.5734C128.49 17.5734 127.918 17.7959 127.237 18.2408C126.578 18.6698 125.985 19.2895 125.457 20.0998C125.106 20.6242 124.864 21.1644 124.732 21.7205C124.622 22.2607 124.6 22.7056 124.666 23.0552C124.732 23.3889 124.853 23.5875 125.029 23.651C125.095 23.6828 125.194 23.6828 125.325 23.651C125.479 23.6034 125.721 23.4683 126.051 23.2459C126.38 23.0075 126.743 22.6898 127.138 22.2925ZM136.235 8.3021C136.674 7.33286 136.993 6.50662 137.191 5.82339C136.114 7.45997 134.96 10.0102 133.73 13.474C134.345 12.3936 135.059 10.9397 135.872 9.11245C136.026 8.76288 136.147 8.49277 136.235 8.3021Z" fill="black"/>
<path d="M182.6 10.042C182.71 10.1373 182.754 10.2485 182.732 10.3756C182.71 10.5027 182.622 10.606 182.468 10.6855C182.205 10.8126 181.952 10.8046 181.71 10.6616C180.656 10.3915 173.251 10.3677 159.496 10.5901C158.068 14.9279 156.618 19.6311 155.145 24.6997C153.388 30.8171 152.322 35.0198 151.948 37.3078C151.992 37.3078 152.036 37.3157 152.08 37.3316C152.256 37.3634 152.377 37.4349 152.443 37.5461C152.509 37.6733 152.509 37.7924 152.443 37.9036C152.333 38.1579 152.245 38.3406 152.179 38.4518C152.091 38.5789 151.97 38.6981 151.816 38.8093C151.663 38.9364 151.498 39 151.322 39C151.256 39 151.179 38.9921 151.091 38.9762C150.806 38.9126 150.641 38.7458 150.597 38.4757C150.531 38.2055 150.553 37.8401 150.663 37.3793C150.751 36.712 150.949 35.7507 151.256 34.4954C151.805 32.112 152.629 29.0136 153.728 25.2002C155.2 20.0521 156.683 15.1901 158.178 10.614C156.683 10.6299 154.827 10.6616 152.607 10.7093C149.092 10.7729 147.026 10.8046 146.411 10.8046C146.235 10.8046 146.093 10.7649 145.983 10.6855C145.851 10.5901 145.785 10.4789 145.785 10.3518C145.785 10.2724 145.818 10.2009 145.884 10.1373C145.928 10.0579 146.005 10.0022 146.115 9.97046C146.202 9.92279 146.301 9.89896 146.411 9.89896C147.026 9.89896 149.081 9.85924 152.575 9.77979C154.75 9.74801 156.727 9.71624 158.507 9.68446C159.21 7.58708 159.837 5.8075 160.386 4.34569C160.43 4.21858 160.529 4.12324 160.682 4.05969C160.836 3.99613 160.99 3.98024 161.144 4.01202C161.32 4.0438 161.451 4.1153 161.539 4.22652C161.627 4.33775 161.649 4.45692 161.605 4.58403C161.078 5.99817 160.474 7.69036 159.793 9.66062C166.384 9.53351 171.361 9.48584 174.723 9.51762C178.085 9.5494 180.194 9.60501 181.051 9.68446C181.93 9.74801 182.446 9.86718 182.6 10.042Z" fill="black"/>
<path d="M169.839 18.7175C170.015 18.6857 170.168 18.7095 170.3 18.789C170.454 18.8525 170.542 18.9478 170.564 19.075C170.586 19.2021 170.553 19.3133 170.465 19.4086C167.982 21.9191 165.719 23.6987 163.676 24.7474C162.863 25.1605 162.061 25.3671 161.27 25.3671C160.654 25.3671 160.116 25.2479 159.655 25.0096C159.391 24.8666 159.16 24.6759 158.962 24.4376C158.743 24.1992 158.556 23.8656 158.402 23.4365C158.248 23.0075 158.226 22.4435 158.336 21.7443C158.424 21.0452 158.666 20.2508 159.061 19.361V19.3371C159.677 17.8912 160.424 16.7472 161.302 15.9051C162.181 15.0629 162.972 14.6339 163.676 14.618C164.181 14.6022 164.51 14.7611 164.664 15.0947C164.906 15.5555 164.62 16.207 163.807 17.0491C162.994 17.8912 161.797 18.7969 160.215 19.7661C159.951 20.3858 159.764 20.9578 159.655 21.4822C159.545 22.0065 159.501 22.4276 159.523 22.7454C159.567 23.0473 159.644 23.3174 159.753 23.5557C159.885 23.7782 159.995 23.9371 160.083 24.0324C160.193 24.1277 160.303 24.2072 160.413 24.2707C161.072 24.6203 161.918 24.525 162.95 23.9847C164.884 22.9996 167.037 21.2994 169.41 18.8843C169.52 18.789 169.663 18.7333 169.839 18.7175ZM163.445 15.6191C162.676 15.9686 161.918 16.7234 161.171 17.8833C162.445 16.9617 163.203 16.207 163.445 15.6191Z" fill="black"/>
<path d="M182.26 18.789C182.436 18.7413 182.601 18.7492 182.755 18.8128C182.908 18.8605 183.007 18.9478 183.051 19.075C183.117 19.1862 183.117 19.2974 183.051 19.4086C180.7 22.9201 178.602 24.6759 176.756 24.6759C176.646 24.6759 176.525 24.668 176.394 24.6521C174.921 24.4455 174.01 23.0155 173.658 20.362C172.581 21.4107 171.626 22.2687 170.791 22.936C170.043 23.508 169.406 23.7067 168.879 23.5319C168.352 23.3889 168.099 22.9758 168.121 22.2925C168.121 21.7205 168.297 21.0373 168.648 20.2428C169 19.4484 169.516 18.6777 170.197 17.9309C170.878 17.1842 171.615 16.7154 172.406 16.5247C173.57 16.2229 174.647 16.5009 175.636 17.3589C175.745 17.4543 175.789 17.5655 175.767 17.6926C175.767 17.8197 175.701 17.923 175.57 18.0024C175.438 18.0819 175.284 18.1216 175.108 18.1216C174.932 18.1057 174.79 18.0501 174.68 17.9548C173.911 17.2874 173.131 17.1603 172.34 17.5734C171.439 18.0342 170.681 18.8684 170.065 20.076C169.472 21.2677 169.241 22.1177 169.373 22.6262C169.505 22.5467 169.659 22.4435 169.835 22.3164C170.714 21.6331 171.79 20.6559 173.065 19.3848C173.35 19.0988 173.548 18.9002 173.658 18.789C173.834 18.6301 174.064 18.5824 174.35 18.646C174.636 18.6936 174.79 18.8287 174.812 19.0511C174.855 19.8297 174.943 20.5209 175.075 21.1247C175.207 21.7285 175.339 22.1892 175.471 22.507C175.603 22.8089 175.756 23.0631 175.932 23.2697C176.108 23.4763 176.24 23.6113 176.328 23.6749C176.438 23.7226 176.547 23.7464 176.657 23.7464C176.965 23.7941 177.349 23.6908 177.811 23.4365C178.294 23.1664 178.898 22.658 179.624 21.9112C180.371 21.1485 181.129 20.1872 181.898 19.0273C181.986 18.9002 182.106 18.8207 182.26 18.789Z" fill="black"/>
<path d="M199.335 18.6698C199.511 18.6539 199.665 18.6857 199.797 18.7651C199.929 18.8446 199.995 18.9478 199.995 19.075C200.016 19.2021 199.973 19.3133 199.863 19.4086C197.072 21.7761 194.864 22.7374 193.238 22.2925C192.073 21.9747 191.447 20.9658 191.359 19.2656C191.052 19.6788 190.568 20.3699 189.909 21.3392C189.536 21.9271 189.283 22.3005 189.151 22.4594C188.58 23.2538 187.964 23.5875 187.305 23.4604C186.404 23.3015 185.965 22.3879 185.987 20.7195C185.987 20.4017 185.998 20.0283 186.02 19.5993C184.57 21.0929 183.087 22.8884 181.57 24.9857C181.307 25.3512 181.021 25.5339 180.714 25.5339C180.604 25.5339 180.505 25.5101 180.417 25.4624C180.307 25.4306 180.23 25.3989 180.186 25.3671C180.12 25.3353 180.065 25.2479 180.021 25.1049C179.955 24.9619 179.944 24.7792 179.988 24.5567C180.01 24.3343 180.076 24.0086 180.186 23.5795C180.296 23.1505 180.461 22.6341 180.681 22.0304C181.384 19.9965 182.23 18.1772 183.218 16.5724C183.284 16.4453 183.394 16.3579 183.548 16.3102C183.724 16.2626 183.889 16.2705 184.042 16.3341C184.218 16.3817 184.328 16.4691 184.372 16.5963C184.438 16.7075 184.438 16.8187 184.372 16.9299C183.273 18.7254 182.372 20.7195 181.669 22.9122C182.988 21.2279 184.35 19.6788 185.756 18.2646C186.064 17.9468 186.404 17.8356 186.778 17.9309C187.042 17.9945 187.195 18.1296 187.239 18.3361C187.283 18.5268 187.294 18.9161 187.272 19.504C187.25 19.9965 187.239 20.4017 187.239 20.7195C187.239 21.5616 187.36 22.1575 187.602 22.507C187.734 22.4117 187.888 22.2528 188.063 22.0304C188.173 21.8715 188.415 21.514 188.788 20.9578C189.689 19.5914 190.338 18.7016 190.733 18.2884C191.129 17.8594 191.535 17.6767 191.953 17.7403C192.414 17.8197 192.645 18.1693 192.645 18.789C192.623 20.3461 192.974 21.2279 193.699 21.4345C194.139 21.5457 194.809 21.4027 195.71 21.0055C196.611 20.5924 197.676 19.8615 198.907 18.8128C199.017 18.7175 199.16 18.6698 199.335 18.6698Z" fill="black"/>
</svg>
