<svg width="105" height="35" viewBox="0 0 105 35" fill="none" xmlns="http://www.w3.org/2000/svg">
<path d="M8.74345 9.15653C9.32482 9.89089 9.7532 10.5029 10.0286 10.9924C10.304 11.4667 10.4417 12.0251 10.4417 12.6677C10.4417 12.9278 10.4187 13.2108 10.3728 13.5168C10.128 14.8784 9.49311 15.8117 8.46807 16.3165C7.44303 16.8061 6.1273 17.0509 4.52089 17.0509C4.04662 17.0509 2.5626 16.9591 0.0688461 16.7755C0.0229487 15.6281 0 13.7922 0 11.2678C0 8.52927 0.00764957 6.05846 0.0229487 3.85538V0.87205C1.36927 0.489572 2.66205 0.298333 3.90128 0.298333C5.63008 0.298333 7.04525 0.680812 8.14679 1.44577C9.26363 2.19543 9.82204 3.43465 9.82204 5.16346C9.82204 6.28029 9.43192 7.49657 8.65166 8.8123V8.78935C8.62106 8.85055 8.60576 8.89645 8.60576 8.92704C8.60576 8.97294 8.65166 9.04179 8.74345 9.13358V9.15653ZM6.19615 5.16346C5.96666 4.73508 5.67598 4.475 5.3241 4.3832C5.07931 4.3526 4.88807 4.3373 4.75038 4.3373C4.3526 4.30671 4.05427 4.26846 3.85538 4.22256C3.90128 4.48265 3.92423 4.88042 3.92423 5.41589V6.24205C3.92423 6.62452 3.93188 6.92286 3.94718 7.13705H4.61269C5.28585 7.13705 5.74482 6.90756 5.98961 6.44858C6.1885 6.08141 6.28794 5.78307 6.28794 5.55359C6.28794 5.41589 6.25734 5.28585 6.19615 5.16346ZM6.19615 12.2087C6.19615 11.9486 6.15025 11.6656 6.05846 11.3596V11.3826C5.98196 11.2143 5.87487 11.0613 5.73717 10.9236C5.59948 10.7859 5.46179 10.7017 5.3241 10.6711C5.07931 10.6099 4.71978 10.5641 4.24551 10.5335C4.19961 10.5335 4.14606 10.5411 4.08487 10.5564C4.03897 10.5564 3.98542 10.5488 3.92423 10.5335C3.77124 11.176 3.69474 11.7344 3.69474 12.2087C3.69474 12.7595 3.77889 13.1879 3.94718 13.4938C4.49794 13.5091 4.92632 13.4938 5.2323 13.4479C5.55358 13.3867 5.82132 13.2261 6.03551 12.966C6.1426 12.813 6.19615 12.5606 6.19615 12.2087Z" fill="#101828"/>
<path d="M20.7356 5.2782C20.7356 5.3547 20.7432 5.48474 20.7585 5.66833C20.7891 5.85192 20.8044 6.02021 20.8044 6.1732C20.7891 6.57098 20.7815 7.16764 20.7815 7.9632C20.7815 9.03414 20.7891 9.83734 20.8044 10.3728V11.7497L20.8274 13.1267C20.8274 14.0293 20.8044 14.9549 20.7585 15.9034V16.1329C20.7585 16.3777 20.7279 16.569 20.6667 16.7067C20.6055 16.829 20.4449 16.9132 20.1848 16.9591H17.2703C16.9184 16.852 16.7425 16.6455 16.7425 16.3395V16.1788C16.36 16.4236 15.9393 16.6225 15.4803 16.7755C15.0214 16.9132 14.5777 16.982 14.1493 16.982C13.3385 16.982 12.65 16.6531 12.0839 15.9952C11.5332 15.3374 11.1201 14.5265 10.8447 13.5627C10.5693 12.5835 10.4316 11.635 10.4316 10.717C10.4316 9.7073 10.6152 8.797 10.9824 7.98615C11.3496 7.15999 11.8544 6.50978 12.497 6.03551C13.1396 5.56123 13.851 5.31645 14.6312 5.30115C15.1055 5.30115 15.5492 5.3394 15.9623 5.41589C16.3753 5.49239 16.6354 5.58418 16.7425 5.69128C16.7425 5.61478 16.7272 5.51534 16.6966 5.39294C16.666 5.27055 16.6737 5.17876 16.7196 5.11756C16.7502 5.08696 16.8573 5.07166 17.0408 5.07166C17.3162 5.07166 17.6758 5.09461 18.1194 5.14051C18.5784 5.17111 18.8691 5.19406 18.9915 5.20935L20.4373 5.2782H20.7356ZM13.9428 11.176C13.9428 11.8492 14.0958 12.4152 14.4017 12.8742C14.7077 13.3179 15.1208 13.5397 15.641 13.5397C15.9776 13.5397 16.2223 13.4479 16.3753 13.2643C16.5283 13.0808 16.6201 12.836 16.6507 12.53C16.6966 12.224 16.7196 11.765 16.7196 11.1531V10.5564C16.7196 9.89854 16.7043 9.45486 16.6737 9.22538C16.6584 8.98059 16.5895 8.81995 16.4671 8.74345C16.36 8.65166 16.1611 8.60576 15.8705 8.60576C15.3809 8.60576 14.9831 8.74345 14.6771 9.01884C14.3711 9.27892 14.1723 9.60021 14.0805 9.98268C13.9887 10.2887 13.9428 10.6864 13.9428 11.176Z" fill="#101828"/>
<path d="M31.2595 12.3005C31.183 13.3408 31.0912 14.1746 30.9841 14.8019C30.8924 15.4292 30.747 15.8576 30.5481 16.087C30.2421 16.5154 29.7985 16.8137 29.2171 16.982C28.651 17.1503 27.9855 17.2345 27.2206 17.2345C26.9299 17.2345 26.5245 17.2192 26.0043 17.1886C25.5147 17.158 25.1399 17.1427 24.8798 17.1427C24.0383 16.9897 23.3269 16.6455 22.7456 16.11C22.2713 15.651 21.9424 15.0773 21.7588 14.3888C21.5905 13.7004 21.5063 12.9278 21.5063 12.071V11.3596C21.5063 10.457 21.4834 9.81439 21.4375 9.43192C21.4375 8.80465 21.4834 8.23858 21.5752 7.73371C21.6058 7.42773 21.6976 7.0682 21.8506 6.65512L21.9883 6.35679C21.973 6.37209 21.9653 6.37209 21.9653 6.35679C22.1795 5.89782 22.6461 5.55358 23.3652 5.3241C24.0842 5.07931 24.8874 4.95692 25.7748 4.95692C25.8513 4.97222 26.1267 4.97987 26.6009 4.97987C26.6927 4.96457 26.884 4.95692 27.1747 4.95692C27.3583 4.95692 27.4883 4.96457 27.5648 4.97987C28.7734 5.08696 29.6761 5.41589 30.2727 5.96666C30.6552 6.27264 30.9077 6.71632 31.03 7.29769C31.1677 7.86375 31.2519 8.64401 31.2825 9.63845V9.89089L31.3054 10.2351C30.8312 10.3269 30.4334 10.3728 30.1121 10.3728C29.7449 10.3728 29.1177 10.3193 28.2303 10.2122L27.7254 10.1433C27.6489 9.69965 27.4959 9.34777 27.2665 9.08768C27.037 8.8123 26.7463 8.67461 26.3944 8.67461C26.3026 8.67461 26.1802 8.68991 26.0272 8.72051H26.0502C25.836 8.797 25.6677 8.90409 25.5453 9.04179C25.4229 9.16418 25.3388 9.34777 25.2929 9.59256C25.2317 10.0209 25.2011 10.5793 25.2011 11.2678L25.1781 12.0481C25.1628 12.2164 25.1552 12.4229 25.1552 12.6677C25.1552 13.0196 25.2699 13.2873 25.4994 13.4709C25.7442 13.6392 26.0425 13.7233 26.3944 13.7233C26.6851 13.7233 26.9681 13.6468 27.2435 13.4938C27.32 13.402 27.3965 13.2337 27.473 12.989C27.5648 12.7289 27.6336 12.4688 27.6795 12.2087C28.1385 12.2699 28.6128 12.2852 29.1024 12.2546H29.6072L30.1121 12.2317C30.4946 12.2317 30.7853 12.2546 30.9841 12.3005H31.2595Z" fill="#101828"/>
<path d="M38.8184 11.5661C40.1189 13.5856 41.1592 15.3756 41.9395 16.9361L40.5625 16.982C39.9506 17.0126 39.4687 17.0279 39.1168 17.0279C38.4283 17.0279 37.9234 16.9897 37.6022 16.9132C37.5104 16.7602 37.2656 16.3089 36.8678 15.5592L36.5695 14.9855C36.4012 14.6948 36.317 14.5342 36.317 14.5036L35.7663 13.425V14.0446L35.7892 14.779C35.7892 15.6969 35.7357 16.4236 35.6286 16.9591C35.445 16.9438 34.9325 16.9361 34.091 16.9361C33.632 16.9667 33.2496 16.982 32.9436 16.982C32.6376 16.982 32.301 16.9514 31.9338 16.8902C31.8726 15.2991 31.842 13.5015 31.842 11.4973C31.842 10.3193 31.8573 8.56751 31.8879 6.24205C31.9185 3.88598 31.9338 1.8206 31.9338 0.0458982C32.5611 0.0458982 32.9971 0.0382482 33.2419 0.0229484H33.8156L34.4123 0L35.1925 0.0458982L35.7433 0.0688466V5.71423L35.7204 6.265C35.7051 6.50978 35.6974 6.86166 35.6974 7.32063L35.6745 7.59602C35.8428 7.41243 35.9651 7.24414 36.0416 7.09115C36.1181 6.93816 36.1793 6.81576 36.2252 6.72397C36.2558 6.67807 36.2864 6.61687 36.317 6.54038C36.3629 6.44858 36.4088 6.36444 36.4547 6.28794V6.31089C36.8525 5.63773 37.2273 5.09461 37.5792 4.68153C38.0229 4.83453 38.4666 4.91102 38.9102 4.91102C39.155 4.91102 39.5375 4.89572 40.0577 4.86512H40.1724C40.3254 4.84982 40.6008 4.84218 40.9986 4.84218C41.3198 4.84218 41.5723 4.84982 41.7559 4.86512C41.3581 5.47709 40.8762 6.16555 40.3101 6.93051C39.7593 7.68016 39.4228 8.13149 39.3004 8.28448C39.2851 8.29978 39.1856 8.42217 39.002 8.65166L37.8775 10.1204C37.954 10.2581 38.0305 10.3881 38.107 10.5105C38.1988 10.6176 38.2753 10.717 38.3365 10.8088C38.4895 11.0842 38.6502 11.3367 38.8184 11.5661Z" fill="#101828"/>
<path d="M50.2874 5.82897C50.3639 5.81367 50.4557 5.78307 50.5628 5.73717C50.6852 5.67598 50.7999 5.63008 50.907 5.59948C51.5496 5.40059 52.3834 5.30115 53.4084 5.30115C54.1581 5.30115 54.5329 5.3394 54.5329 5.41589L54.51 6.60923L54.5329 9.7073L53.9133 9.50076L52.5823 9.17948C52.2151 9.13358 51.8862 9.11063 51.5955 9.11063C51.1212 9.11063 50.7617 9.22538 50.5169 9.45486C50.2721 9.68435 50.1574 10.0821 50.1727 10.6482C50.2339 12.53 50.2645 14.5801 50.2645 16.7984C49.8667 16.9055 49.5378 16.9667 49.2777 16.982C49.0176 17.0126 48.6886 17.0203 48.2909 17.005C48.1379 16.9897 47.8931 16.982 47.5565 16.982C47.1893 16.982 46.8375 16.9973 46.5009 17.0279C46.5009 15.192 46.4932 13.8304 46.4779 12.9431C46.4473 10.9542 46.432 9.44721 46.432 8.42217C46.432 7.67251 46.4473 6.60923 46.4779 5.2323C46.9675 5.2935 47.35 5.3241 47.6254 5.3241C48.0231 5.3241 48.4133 5.30115 48.7957 5.25525C49.1629 5.20935 49.5225 5.18641 49.8743 5.18641C50.1344 5.18641 50.2645 5.20935 50.2645 5.25525L50.2874 5.80602V5.82897Z" fill="#101828"/>
<path d="M58.9428 4.91102C59.0193 4.92632 59.2947 4.93397 59.769 4.93397C59.8608 4.91867 60.052 4.91102 60.3427 4.91102C60.5263 4.91102 60.6563 4.91867 60.7328 4.93397C61.2683 4.96457 61.7732 5.07166 62.2474 5.25525C62.737 5.42354 63.1271 5.65303 63.4178 5.94371C63.8615 6.29559 64.1522 6.84636 64.2899 7.59602C64.4276 8.34568 64.4964 9.21773 64.4964 10.2122V10.9695C64.4505 12.2699 64.374 13.3638 64.2669 14.2511C64.1598 15.1385 63.9762 15.7352 63.7162 16.0411C63.4102 16.4695 62.9665 16.7678 62.3851 16.9361C61.8191 17.1044 61.1536 17.1886 60.3886 17.1886C60.0979 17.1886 59.6925 17.1733 59.1723 17.1427C58.6827 17.1121 58.3079 17.0968 58.0478 17.0968C57.237 16.9438 56.5256 16.5996 55.9136 16.0641C55.4393 15.6051 55.1104 15.0314 54.9268 14.3429C54.7432 13.6392 54.6514 12.8513 54.6514 11.9792L54.6285 9.36307C54.5826 8.94999 54.6285 8.35333 54.7662 7.57307C54.9192 6.79281 55.0722 6.34914 55.2251 6.24205C55.3934 5.81367 55.8295 5.48474 56.5332 5.25525C57.2523 5.02576 58.0555 4.91102 58.9428 4.91102ZM58.4609 9.54666C58.4456 9.69965 58.4303 9.91384 58.415 10.1892C58.3997 10.4493 58.3921 10.6482 58.3921 10.7859L58.3691 11.2449C58.3691 11.6273 58.3538 12.0481 58.3232 12.507C58.3385 12.8436 58.4686 13.119 58.7133 13.3332C58.9581 13.5474 59.2335 13.6545 59.5395 13.6545C59.8455 13.6545 60.1515 13.5856 60.4574 13.4479C60.5492 13.402 60.664 13.1496 60.8017 12.6906L60.8246 12.5759C60.9164 11.8109 60.9623 11.2525 60.9623 10.9006C60.9623 10.5335 60.9317 10.2045 60.8705 9.91384C60.794 9.51606 60.641 9.20243 60.4115 8.97294C60.1974 8.74345 59.922 8.62871 59.5854 8.62871C59.5242 8.62871 59.4018 8.64401 59.2182 8.67461C58.8357 8.797 58.6139 8.96529 58.5527 9.17948L58.4609 9.54666Z" fill="#101828"/>
<path d="M69.2294 4.91102C69.3059 4.92632 69.5813 4.93397 70.0556 4.93397C70.1474 4.91867 70.3386 4.91102 70.6293 4.91102C70.8129 4.91102 70.9429 4.91867 71.0194 4.93397C71.5549 4.96457 72.0597 5.07166 72.534 5.25525C73.0236 5.42354 73.4137 5.65303 73.7044 5.94371C74.1481 6.29559 74.4388 6.84636 74.5765 7.59602C74.7141 8.34568 74.783 9.21773 74.783 10.2122V10.9695C74.7371 12.2699 74.6606 13.3638 74.5535 14.2511C74.4464 15.1385 74.2628 15.7352 74.0027 16.0411C73.6968 16.4695 73.2531 16.7678 72.6717 16.9361C72.1056 17.1044 71.4401 17.1886 70.6752 17.1886C70.3845 17.1886 69.9791 17.1733 69.4589 17.1427C68.9693 17.1121 68.5945 17.0968 68.3344 17.0968C67.5236 16.9438 66.8121 16.5996 66.2002 16.0641C65.7259 15.6051 65.397 15.0314 65.2134 14.3429C65.0298 13.6392 64.938 12.8513 64.938 11.9792L64.9151 9.36307C64.8692 8.94999 64.9151 8.35333 65.0527 7.57307C65.2057 6.79281 65.3587 6.34914 65.5117 6.24205C65.68 5.81367 66.116 5.48474 66.8198 5.25525C67.5388 5.02576 68.3421 4.91102 69.2294 4.91102ZM68.7475 9.54666C68.7322 9.69965 68.7169 9.91384 68.7016 10.1892C68.6863 10.4493 68.6786 10.6482 68.6786 10.7859L68.6557 11.2449C68.6557 11.6273 68.6404 12.0481 68.6098 12.507C68.6251 12.8436 68.7551 13.119 68.9999 13.3332C69.2447 13.5474 69.5201 13.6545 69.8261 13.6545C70.132 13.6545 70.438 13.5856 70.744 13.4479C70.8358 13.402 70.9506 13.1496 71.0883 12.6906L71.1112 12.5759C71.203 11.8109 71.2489 11.2525 71.2489 10.9006C71.2489 10.5335 71.2183 10.2045 71.1571 9.91384C71.0806 9.51606 70.9276 9.20243 70.6981 8.97294C70.4839 8.74345 70.2085 8.62871 69.872 8.62871C69.8108 8.62871 69.6884 8.64401 69.5048 8.67461C69.1223 8.797 68.9005 8.96529 68.8393 9.17948L68.7475 9.54666Z" fill="#101828"/>
<path d="M80.1842 5.37C80.9797 5.3394 81.6835 5.30115 82.2955 5.25525L82.6167 5.2323C82.7238 5.217 82.8309 5.217 82.938 5.2323C83.0604 5.2323 83.1599 5.2323 83.2364 5.2323H83.7642C83.8254 5.84427 83.856 6.19615 83.856 6.28794C83.856 6.36444 83.8407 6.60158 83.8101 6.99935L83.7871 7.25179L83.7642 7.75666C83.7642 7.86375 83.7795 8.03969 83.8101 8.28448H80.2301C80.2301 10.717 80.2224 12.2087 80.2071 12.7595C80.4366 13.0502 80.8497 13.2643 81.4464 13.402C82.043 13.5397 82.6626 13.6086 83.3052 13.6086L83.7871 13.5856V13.7922L83.8101 13.884V13.861C83.9019 14.5036 83.9478 15.0773 83.9478 15.5822C83.9478 16.0717 83.8789 16.5154 83.7412 16.9132C83.3435 16.9438 82.938 16.9591 82.525 16.9591C81.1327 16.9591 79.9088 16.7984 78.8532 16.4772C77.8128 16.1406 77.1244 15.5745 76.7878 14.779C76.6501 13.9528 76.5583 13.1343 76.5124 12.3235C76.4665 11.4973 76.4436 10.5564 76.4436 9.50076V8.35333C76.2447 8.36862 76.0611 8.37628 75.8928 8.37628C75.7398 8.36098 75.6021 8.35333 75.4797 8.35333H74.7912L74.8601 5.3241C75.2732 5.3394 75.8163 5.34705 76.4894 5.34705L76.5124 0.963845C76.849 0.933247 77.1396 0.917948 77.3844 0.917948C77.6292 0.917948 77.9199 0.933247 78.2565 0.963845L78.4171 0.986794C78.7843 1.01739 79.0673 1.03269 79.2662 1.03269C79.5569 1.03269 79.8553 1.00974 80.1612 0.963845V5.14051L80.1842 5.37Z" fill="#101828"/>
<path d="M87.682 11.7268C87.6973 12.2317 87.7202 12.6065 87.7508 12.8513C87.7967 13.0808 87.9038 13.3255 88.0721 13.5856C88.1945 13.8151 88.3551 13.9911 88.554 14.1135C88.7529 14.2358 88.9594 14.297 89.1736 14.297C89.4949 14.297 89.755 14.1287 89.9539 13.7922C90.1528 13.4403 90.2369 12.9278 90.2063 12.2546C90.65 12.3158 91.1243 12.3311 91.6291 12.3005L93.7863 12.4152C93.7863 13.1037 93.7328 13.7998 93.6257 14.5036C93.5339 15.2073 93.3503 15.7428 93.0749 16.11C92.7689 16.5384 92.3252 16.829 91.7439 16.982C91.1778 17.1503 90.5123 17.2345 89.7473 17.2345C89.4566 17.2345 89.0512 17.2192 88.5311 17.1886C88.2863 17.1733 87.9267 17.1656 87.4525 17.1656C86.9782 17.1044 86.5039 16.9361 86.0296 16.6608C85.2953 16.0794 84.7522 15.2532 84.4003 14.1823C84.0484 13.1114 83.8725 11.9486 83.8725 10.6941C83.8725 9.37837 84.0561 8.16974 84.4232 7.0682C84.7292 6.37974 85.2953 5.84427 86.1214 5.46179C86.9476 5.07931 87.8655 4.88807 88.8753 4.88807C89.426 4.88807 89.9615 4.94927 90.4817 5.07166C91.6597 5.30115 92.5165 5.85957 93.0519 6.74692C93.6027 7.61897 93.8781 8.66696 93.8781 9.89089C93.8781 10.0898 93.8628 10.434 93.8322 10.9236C93.5415 11.0001 92.876 11.0766 91.8357 11.1531C90.7953 11.2143 89.8238 11.2449 88.9212 11.2449H87.682V11.7268ZM89.9309 7.59602C89.7014 7.45833 89.4949 7.38948 89.3113 7.38948C88.7758 7.38948 88.3934 7.51187 88.1639 7.75666C87.9344 8.00145 87.7967 8.34568 87.7508 8.78935C87.7355 8.85055 87.7279 8.91939 87.7279 8.99589C87.7279 9.08769 87.7737 9.14123 87.8655 9.15653C87.9573 9.17183 88.1868 9.17183 88.554 9.15653H89.5637L90.2522 9.17948H90.5505C90.5964 9.19478 90.627 9.19478 90.6423 9.17948C90.6576 9.16418 90.6653 9.13358 90.6653 9.08768V8.99589C90.6653 8.67461 90.6041 8.39157 90.4817 8.14679C90.3746 7.902 90.2216 7.72606 90.0227 7.61897L89.9309 7.59602Z" fill="#101828"/>
<path d="M100.426 0.688462C100.426 0.642564 100.625 0.596666 101.023 0.550768C101.421 0.489572 101.857 0.458973 102.331 0.458973C102.943 0.458973 103.501 0.512521 104.006 0.619615V2.18013C104.006 3.63354 104.037 5.75247 104.098 8.53692C104.144 10.2504 104.167 12.0787 104.167 14.0217C104.167 15.3527 104.159 16.3165 104.144 16.9132H103.501L102.905 16.9361C102.308 16.9361 101.489 16.9132 100.449 16.8673C100.373 16.7908 100.334 16.7067 100.334 16.6149L100.311 16.087L100.266 16.1559C100.051 16.416 99.8219 16.6072 99.5771 16.7296C99.3323 16.8367 99.0493 16.8902 98.728 16.8902C98.5138 16.8902 98.3532 16.8826 98.2461 16.8673H98.269C97.1369 16.7602 96.2648 16.393 95.6529 15.7658C95.0562 15.1385 94.6508 14.3735 94.4366 13.4709C94.2377 12.5682 94.1229 11.5049 94.0923 10.281C94.0923 9.13358 94.2683 8.12384 94.6202 7.25179C94.972 6.36444 95.4922 5.78307 96.1807 5.50769C96.762 5.2935 97.4888 5.18641 98.3608 5.18641C99.2023 5.18641 99.8678 5.25525 100.357 5.39294L100.334 4.58974C100.319 4.20726 100.311 3.71769 100.311 3.12102C100.311 2.81504 100.35 2.08833 100.426 0.940897V0.688462ZM97.5347 9.63845C97.4429 9.88324 97.397 10.3116 97.397 10.9236C97.397 11.7038 97.5576 12.3846 97.8789 12.966C98.2002 13.5321 98.6209 13.8151 99.1411 13.8151C99.7071 13.8151 100.067 13.5627 100.22 13.0578C100.373 12.5376 100.449 11.7191 100.449 10.6023C100.449 9.77614 100.426 9.20243 100.38 8.88115C100.35 8.55986 100.266 8.34568 100.128 8.23858C99.9902 8.13149 99.7454 8.07794 99.3935 8.07794C98.8733 8.07794 98.4526 8.21563 98.1313 8.49102C97.81 8.7664 97.6112 9.17183 97.5347 9.7073V9.63845Z" fill="#101828"/>
<path d="M18.2063 23.5186C18.2828 23.5033 18.3746 23.4727 18.4817 23.4268C18.6041 23.3656 18.7188 23.3197 18.8259 23.2891C19.4685 23.0902 20.3023 22.9908 21.3273 22.9908C22.077 22.9908 22.4518 23.029 22.4518 23.1055L22.4289 24.2988L22.4518 27.3969L21.8322 27.1904L20.5012 26.8691C20.134 26.8232 19.8051 26.8003 19.5144 26.8003C19.0401 26.8003 18.6806 26.915 18.4358 27.1445C18.191 27.374 18.0763 27.7717 18.0916 28.3378C18.1527 30.2196 18.1833 32.2697 18.1833 34.4881C17.7856 34.5952 17.4566 34.6564 17.1966 34.6717C16.9365 34.7023 16.6075 34.7099 16.2098 34.6946C16.0568 34.6793 15.812 34.6717 15.4754 34.6717C15.1082 34.6717 14.7563 34.687 14.4198 34.7176C14.4198 32.8817 14.4121 31.52 14.3968 30.6327C14.3662 28.6438 14.3509 27.1368 14.3509 26.1118C14.3509 25.3621 14.3662 24.2988 14.3968 22.9219C14.8864 22.9831 15.2689 23.0137 15.5442 23.0137C15.942 23.0137 16.3322 22.9908 16.7146 22.9449C17.0818 22.899 17.4413 22.876 17.7932 22.876C18.0533 22.876 18.1833 22.899 18.1833 22.9449L18.2063 23.4956V23.5186Z" fill="#101828"/>
<path d="M26.2651 29.4164C26.2804 29.9213 26.3033 30.2961 26.3339 30.5409C26.3798 30.7704 26.4869 31.0152 26.6552 31.2752C26.7776 31.5047 26.9382 31.6807 27.1371 31.8031C27.336 31.9255 27.5425 31.9867 27.7567 31.9867C28.078 31.9867 28.3381 31.8184 28.537 31.4818C28.7359 31.1299 28.82 30.6174 28.7894 29.9442C29.2331 30.0054 29.7074 30.0207 30.2122 29.9901L32.3694 30.1049C32.3694 30.7933 32.3159 31.4894 32.2088 32.1932C32.117 32.897 31.9334 33.4324 31.658 33.7996C31.352 34.228 30.9083 34.5187 30.327 34.6717C29.7609 34.84 29.0954 34.9241 28.3304 34.9241C28.0398 34.9241 27.6343 34.9088 27.1142 34.8782C26.8694 34.8629 26.5098 34.8552 26.0356 34.8552C25.5613 34.794 25.087 34.6258 24.6127 34.3504C23.8784 33.769 23.3353 32.9429 22.9834 31.8719C22.6315 30.801 22.4556 29.6382 22.4556 28.3837C22.4556 27.068 22.6392 25.8594 23.0063 24.7578C23.3123 24.0694 23.8784 23.5339 24.7045 23.1514C25.5307 22.7689 26.4486 22.5777 27.4584 22.5777C28.0092 22.5777 28.5446 22.6389 29.0648 22.7613C30.2428 22.9908 31.0996 23.5492 31.635 24.4365C32.1858 25.3086 32.4612 26.3566 32.4612 27.5805C32.4612 27.7794 32.4459 28.1236 32.4153 28.6132C32.1246 28.6897 31.4591 28.7662 30.4188 28.8427C29.3784 28.9039 28.4069 28.9345 27.5043 28.9345H26.2651V29.4164ZM28.514 25.2856C28.2845 25.1479 28.078 25.0791 27.8944 25.0791C27.3589 25.0791 26.9765 25.2015 26.747 25.4463C26.5175 25.6911 26.3798 26.0353 26.3339 26.479C26.3186 26.5402 26.3109 26.609 26.3109 26.6855C26.3109 26.7773 26.3568 26.8309 26.4486 26.8462C26.5404 26.8615 26.7699 26.8615 27.1371 26.8462H28.1468L28.8353 26.8691H29.1336C29.1795 26.8844 29.2101 26.8844 29.2254 26.8691C29.2407 26.8538 29.2484 26.8232 29.2484 26.7773V26.6855C29.2484 26.3642 29.1872 26.0812 29.0648 25.8364C28.9577 25.5916 28.8047 25.4157 28.6058 25.3086L28.514 25.2856Z" fill="#101828"/>
<path d="M37.7493 23.0596C38.5448 23.029 39.2486 22.9908 39.8605 22.9449L40.1818 22.9219C40.2889 22.9066 40.396 22.9066 40.5031 22.9219C40.6255 22.9219 40.7249 22.9219 40.8014 22.9219H41.3293C41.3905 23.5339 41.4211 23.8858 41.4211 23.9776C41.4211 24.0541 41.4058 24.2912 41.3752 24.689L41.3522 24.9414L41.3293 25.4463C41.3293 25.5534 41.3446 25.7293 41.3752 25.9741H37.7952C37.7952 28.4067 37.7875 29.8983 37.7722 30.4491C38.0017 30.7398 38.4148 30.954 39.0114 31.0917C39.6081 31.2294 40.2277 31.2982 40.8703 31.2982L41.3522 31.2752V31.4818L41.3752 31.5736V31.5506C41.467 32.1932 41.5128 32.7669 41.5128 33.2718C41.5128 33.7614 41.444 34.205 41.3063 34.6028C40.9085 34.6334 40.5031 34.6487 40.09 34.6487C38.6978 34.6487 37.4739 34.4881 36.4182 34.1668C35.3779 33.8302 34.6894 33.2641 34.3529 32.4686C34.2152 31.6424 34.1234 30.8239 34.0775 30.0131C34.0316 29.1869 34.0086 28.246 34.0086 27.1904V26.0429C33.8097 26.0582 33.6261 26.0659 33.4579 26.0659C33.3049 26.0506 33.1672 26.0429 33.0448 26.0429H32.3563L32.4252 23.0137C32.8382 23.029 33.3814 23.0367 34.0545 23.0367L34.0775 18.6535C34.4141 18.6229 34.7047 18.6076 34.9495 18.6076C35.1943 18.6076 35.485 18.6229 35.8216 18.6535L35.9822 18.6764C36.3494 18.707 36.6324 18.7223 36.8313 18.7223C37.122 18.7223 37.4203 18.6994 37.7263 18.6535V22.8301L37.7493 23.0596Z" fill="#101828"/>
<path d="M45.6372 23.5186C45.7137 23.5033 45.8055 23.4727 45.9125 23.4268C46.0349 23.3656 46.1497 23.3197 46.2568 23.2891C46.8993 23.0902 47.7331 22.9908 48.7582 22.9908C49.5078 22.9908 49.8827 23.029 49.8827 23.1055L49.8597 24.2988L49.8827 27.3969L49.2631 27.1904L47.932 26.8691C47.5648 26.8232 47.2359 26.8003 46.9452 26.8003C46.471 26.8003 46.1114 26.915 45.8666 27.1445C45.6219 27.374 45.5071 27.7717 45.5224 28.3378C45.5836 30.2196 45.6142 32.2697 45.6142 34.4881C45.2164 34.5952 44.8875 34.6564 44.6274 34.6717C44.3673 34.7023 44.0384 34.7099 43.6406 34.6946C43.4876 34.6793 43.2428 34.6717 42.9063 34.6717C42.5391 34.6717 42.1872 34.687 41.8506 34.7176C41.8506 32.8817 41.843 31.52 41.8277 30.6327C41.7971 28.6438 41.7818 27.1368 41.7818 26.1118C41.7818 25.3621 41.7971 24.2988 41.8277 22.9219C42.3172 22.9831 42.6997 23.0137 42.9751 23.0137C43.3729 23.0137 43.763 22.9908 44.1455 22.9449C44.5127 22.899 44.8722 22.876 45.2241 22.876C45.4842 22.876 45.6142 22.899 45.6142 22.9449L45.6372 23.4956V23.5186Z" fill="#101828"/>
<path d="M53.6959 29.4164C53.7112 29.9213 53.7342 30.2961 53.7648 30.5409C53.8107 30.7704 53.9178 31.0152 54.086 31.2752C54.2084 31.5047 54.3691 31.6807 54.568 31.8031C54.7669 31.9255 54.9734 31.9867 55.1876 31.9867C55.5089 31.9867 55.7689 31.8184 55.9678 31.4818C56.1667 31.1299 56.2509 30.6174 56.2203 29.9442C56.6639 30.0054 57.1382 30.0207 57.6431 29.9901L59.8003 30.1049C59.8003 30.7933 59.7467 31.4894 59.6396 32.1932C59.5478 32.897 59.3642 33.4324 59.0889 33.7996C58.7829 34.228 58.3392 34.5187 57.7578 34.6717C57.1918 34.84 56.5263 34.9241 55.7613 34.9241C55.4706 34.9241 55.0652 34.9088 54.545 34.8782C54.3002 34.8629 53.9407 34.8552 53.4664 34.8552C52.9922 34.794 52.5179 34.6258 52.0436 34.3504C51.3092 33.769 50.7661 32.9429 50.4143 31.8719C50.0624 30.801 49.8864 29.6382 49.8864 28.3837C49.8864 27.068 50.07 25.8594 50.4372 24.7578C50.7432 24.0694 51.3093 23.5339 52.1354 23.1514C52.9616 22.7689 53.8795 22.5777 54.8893 22.5777C55.44 22.5777 55.9755 22.6389 56.4957 22.7613C57.6737 22.9908 58.5304 23.5492 59.0659 24.4365C59.6167 25.3086 59.8921 26.3566 59.8921 27.5805C59.8921 27.7794 59.8768 28.1236 59.8462 28.6132C59.5555 28.6897 58.89 28.7662 57.8496 28.8427C56.8093 28.9039 55.8378 28.9345 54.9351 28.9345H53.6959V29.4164ZM55.9449 25.2856C55.7154 25.1479 55.5089 25.0791 55.3253 25.0791C54.7898 25.0791 54.4073 25.2015 54.1778 25.4463C53.9484 25.6911 53.8107 26.0353 53.7648 26.479C53.7495 26.5402 53.7418 26.609 53.7418 26.6855C53.7418 26.7773 53.7877 26.8309 53.8795 26.8462C53.9713 26.8615 54.2008 26.8615 54.568 26.8462H55.5777L56.2662 26.8691H56.5645C56.6104 26.8844 56.641 26.8844 56.6563 26.8691C56.6716 26.8538 56.6792 26.8232 56.6792 26.7773V26.6855C56.6792 26.3642 56.6181 26.0812 56.4957 25.8364C56.3886 25.5916 56.2356 25.4157 56.0367 25.3086L55.9449 25.2856Z" fill="#101828"/>
<path d="M70.3644 22.9678C70.3644 23.0443 70.372 23.1744 70.3873 23.3579C70.4179 23.5415 70.4332 23.7098 70.4332 23.8628C70.4179 24.2606 70.4103 24.8573 70.4103 25.6528C70.4103 26.7238 70.4179 27.527 70.4332 28.0624V29.4394L70.4562 30.8163C70.4562 31.7189 70.4332 32.6445 70.3873 33.5931V33.8226C70.3873 34.0673 70.3567 34.2586 70.2955 34.3963C70.2343 34.5187 70.0737 34.6028 69.8136 34.6487H66.8991C66.5472 34.5416 66.3713 34.3351 66.3713 34.0291V33.8685C65.9888 34.1132 65.5681 34.3121 65.1091 34.4651C64.6502 34.6028 64.2065 34.6717 63.7781 34.6717C62.9673 34.6717 62.2788 34.3427 61.7127 33.6849C61.1619 33.027 60.7489 32.2161 60.4735 31.2523C60.1981 30.2732 60.0604 29.3246 60.0604 28.4067C60.0604 27.3969 60.244 26.4866 60.6112 25.6758C60.9784 24.8496 61.4832 24.1994 62.1258 23.7251C62.7684 23.2509 63.4798 23.0061 64.26 22.9908C64.7343 22.9908 65.178 23.029 65.591 23.1055C66.0041 23.182 66.2642 23.2738 66.3713 23.3809C66.3713 23.3044 66.356 23.205 66.3254 23.0826C66.2948 22.9602 66.3025 22.8684 66.3484 22.8072C66.379 22.7766 66.4861 22.7613 66.6696 22.7613C66.945 22.7613 67.3046 22.7842 67.7482 22.8301C68.2072 22.8607 68.4979 22.8837 68.6203 22.899L70.066 22.9678H70.3644ZM63.5716 28.8656C63.5716 29.5388 63.7246 30.1049 64.0305 30.5638C64.3365 31.0075 64.7496 31.2294 65.2698 31.2294C65.6063 31.2294 65.8511 31.1376 66.0041 30.954C66.1571 30.7704 66.2489 30.5256 66.2795 30.2196C66.3254 29.9136 66.3484 29.4547 66.3484 28.8427V28.246C66.3484 27.5882 66.3331 27.1445 66.3025 26.915C66.2872 26.6702 66.2183 26.5096 66.0959 26.4331C65.9888 26.3413 65.7899 26.2954 65.4993 26.2954C65.0097 26.2954 64.6119 26.4331 64.3059 26.7085C63.9999 26.9685 63.8011 27.2898 63.7093 27.6723C63.6175 27.9783 63.5716 28.3761 63.5716 28.8656Z" fill="#101828"/>
<path d="M76.1838 23.0596C76.9794 23.029 77.6832 22.9908 78.2951 22.9449L78.6164 22.9219C78.7235 22.9066 78.8306 22.9066 78.9377 22.9219C79.0601 22.9219 79.1595 22.9219 79.236 22.9219H79.7638C79.825 23.5339 79.8556 23.8858 79.8556 23.9776C79.8556 24.0541 79.8403 24.2912 79.8097 24.689L79.7868 24.9414L79.7638 25.4463C79.7638 25.5534 79.7791 25.7293 79.8097 25.9741H76.2297C76.2297 28.4067 76.2221 29.8983 76.2068 30.4491C76.4363 30.7398 76.8494 30.954 77.446 31.0917C78.0427 31.2294 78.6623 31.2982 79.3049 31.2982L79.7868 31.2752V31.4818L79.8097 31.5736V31.5506C79.9015 32.1932 79.9474 32.7669 79.9474 33.2718C79.9474 33.7614 79.8786 34.205 79.7409 34.6028C79.3431 34.6334 78.9377 34.6487 78.5246 34.6487C77.1324 34.6487 75.9085 34.4881 74.8528 34.1668C73.8125 33.8302 73.124 33.2641 72.7874 32.4686C72.6497 31.6424 72.558 30.8239 72.5121 30.0131C72.4662 29.1869 72.4432 28.246 72.4432 27.1904V26.0429C72.2443 26.0582 72.0607 26.0659 71.8924 26.0659C71.7394 26.0506 71.6018 26.0429 71.4794 26.0429H70.7909L70.8597 23.0137C71.2728 23.029 71.8159 23.0367 72.4891 23.0367L72.5121 18.6535C72.8486 18.6229 73.1393 18.6076 73.3841 18.6076C73.6289 18.6076 73.9196 18.6229 74.2562 18.6535L74.4168 18.6764C74.784 18.707 75.067 18.7223 75.2659 18.7223C75.5566 18.7223 75.8549 18.6994 76.1609 18.6535V22.8301L76.1838 23.0596Z" fill="#101828"/>
<path d="M89.7401 26.8003C89.3576 26.8615 88.9292 26.892 88.4549 26.892C87.7359 26.892 86.9556 26.8079 86.1142 26.6396C86.1295 26.5784 86.1371 26.479 86.1371 26.3413C86.1371 26.02 86.0377 25.7523 85.8388 25.5381C85.6399 25.3239 85.3492 25.2321 84.9667 25.2627C84.7373 25.3392 84.546 25.4692 84.393 25.6528C84.2553 25.8211 84.1865 26.0123 84.1865 26.2265C84.1865 26.4713 84.2553 26.7008 84.393 26.915C84.5307 27.1292 84.7296 27.2898 84.9897 27.3969H84.9667C86.1142 27.5652 87.0398 27.7641 87.7435 27.9936C88.4473 28.2231 88.9828 28.575 89.3499 29.0492C89.763 29.7224 89.9696 30.3955 89.9696 31.0687C89.9696 31.5736 89.8472 32.1702 89.6024 32.8587C89.2505 33.5931 88.6768 34.1362 87.8812 34.4881C87.101 34.8399 86.1983 35.0082 85.1733 34.9929C83.5057 35.0541 82.167 34.7176 81.1573 33.9832C80.1628 33.2488 79.6656 32.2008 79.6656 30.8392C80.2776 30.7627 80.9048 30.7245 81.5474 30.7245L83.7505 30.7704C83.7658 31.1376 83.9111 31.4435 84.1865 31.6883C84.4619 31.9178 84.7679 32.0326 85.1044 32.0326C85.3492 32.0326 85.5634 31.9408 85.747 31.7572C85.9306 31.5583 86.0147 31.2982 85.9994 30.9769C86.0453 30.5791 85.9229 30.3038 85.6323 30.1508C85.3416 29.9825 84.9055 29.8371 84.3242 29.7147L83.9799 29.6459C83.3527 29.5082 82.8784 29.3705 82.5571 29.2328C81.7157 28.9115 81.0578 28.4526 80.5835 27.8559C80.1246 27.2439 79.8951 26.609 79.8951 25.9512C79.8951 25.2474 80.1322 24.5895 80.6065 23.9776C81.0808 23.3656 81.7233 22.9449 82.5342 22.7154C83.085 22.5624 83.8882 22.4859 84.9438 22.4859C86.0606 22.4859 87.0704 22.593 87.973 22.8072C88.7074 23.1132 89.2429 23.6104 89.5794 24.2988C89.9313 24.972 90.1073 25.7676 90.1073 26.6855L89.7401 26.8003Z" fill="#101828"/>
</svg>
