<svg width="128" height="101" viewBox="0 0 128 101" fill="none" xmlns="http://www.w3.org/2000/svg">
<path fill-rule="evenodd" clip-rule="evenodd" d="M32.69 67.6703H78.645C78.905 67.6703 79.1584 67.6422 79.4025 67.589C79.6465 67.6422 79.8999 67.6703 80.16 67.6703H106.42C108.372 67.6703 109.955 66.0876 109.955 64.1353C109.955 62.183 108.372 60.6003 106.42 60.6003H103.39C101.438 60.6003 99.855 59.0176 99.855 57.0653C99.855 55.113 101.438 53.5303 103.39 53.5303H112.985C114.937 53.5303 116.52 51.9476 116.52 49.9953C116.52 48.043 114.937 46.4603 112.985 46.4603H101.875C103.827 46.4603 105.41 44.8776 105.41 42.9253C105.41 40.973 103.827 39.3903 101.875 39.3903H69.555C71.5073 39.3903 73.09 37.8076 73.09 35.8553C73.09 33.903 71.5073 32.3203 69.555 32.3203H40.77C38.8176 32.3203 37.235 33.903 37.235 35.8553C37.235 37.8076 38.8176 39.3903 40.77 39.3903H20.57C18.6176 39.3903 17.035 40.973 17.035 42.9253C17.035 44.8776 18.6176 46.4603 20.57 46.4603H33.195C35.1473 46.4603 36.73 48.043 36.73 49.9953C36.73 51.9476 35.1473 53.5303 33.195 53.5303H12.995C11.0426 53.5303 9.45996 55.113 9.45996 57.0653C9.45996 59.0176 11.0426 60.6003 12.995 60.6003H32.69C30.7376 60.6003 29.155 62.183 29.155 64.1353C29.155 66.0876 30.7376 67.6703 32.69 67.6703ZM115.005 67.6703C116.957 67.6703 118.54 66.0876 118.54 64.1353C118.54 62.183 116.957 60.6003 115.005 60.6003C113.053 60.6003 111.47 62.183 111.47 64.1353C111.47 66.0876 113.053 67.6703 115.005 67.6703Z" fill="#FDF7F2"/>
<path fill-rule="evenodd" clip-rule="evenodd" d="M45.7221 68.0289L43.8557 68.2942C42.8525 68.4368 41.9263 67.7393 41.7869 66.7363L36.7394 30.4143C36.6 29.4113 37.3002 28.4826 38.3034 28.34L74.1773 23.2411C75.1805 23.0986 76.1067 23.7961 76.2461 24.7991L76.6799 27.9204C76.7033 28.0892 78.2529 39.3 81.3287 61.5525C81.4831 62.6699 80.7127 63.7023 79.6078 63.8585C79.5959 63.8602 79.584 63.8618 79.5722 63.8633L45.7221 68.0289Z" fill="#F7F3EF"/>
<path d="M44.4458 70.2575L42.3904 70.5463C41.2856 70.7016 40.2642 69.9319 40.1089 68.8271L34.4863 28.8203C34.331 27.7155 35.1008 26.6941 36.2055 26.5388L75.7123 20.9865C76.817 20.8312 77.8385 21.601 77.9937 22.7057C77.9937 22.7057 78.3532 25.2637 78.4769 26.1436" stroke="#CF956F" stroke-width="1.2625" stroke-linecap="round"/>
<path d="M78.8977 28.4707L79.1502 30.0465" stroke="#CF956F" stroke-width="1.2625" stroke-linecap="round"/>
<path d="M51.2848 30.5476C51.365 29.7848 52.0483 29.2314 52.8111 29.3116L92.4876 33.4818C93.2504 33.5619 93.8037 34.2453 93.7235 35.0081L89.5006 75.1867C89.4204 75.9495 88.7371 76.5029 87.9743 76.4227L48.2978 72.2526C47.5351 72.1724 46.9817 71.489 47.0619 70.7263L51.2848 30.5476Z" stroke="#CF956F" stroke-width="1.2625"/>
<path fill-rule="evenodd" clip-rule="evenodd" d="M56.2939 55.4893L61.2416 52.1522C62.0666 51.5958 63.1739 51.7231 63.8511 52.4522L67.4738 56.3523C67.6546 56.5469 67.9553 56.5682 68.1617 56.401L75.9084 50.124C76.8415 49.3679 78.2243 49.5881 78.8764 50.5967L83.9167 58.3926L84.6406 59.6005L84.2939 63.7035C84.27 63.9866 84.0173 64.1942 83.735 64.1629L54.9688 60.9668C54.6953 60.9364 54.4965 60.6927 54.5217 60.4186L54.9029 56.2783L56.2939 55.4893Z" fill="#F7F3EF"/>
<path d="M55.3825 35.0395C55.4335 34.5541 55.8684 34.2019 56.3538 34.2529L87.9945 37.5785C88.4799 37.6295 88.8321 38.0644 88.7811 38.5498L85.9833 65.1682C85.9323 65.6536 85.4975 66.0057 85.0121 65.9547L53.3713 62.6291C52.8859 62.5781 52.5338 62.1433 52.5848 61.6579L55.3825 35.0395Z" stroke="#CF956F" stroke-width="1.2625"/>
<circle cx="62.5004" cy="43.4043" r="3.03" transform="rotate(6 62.5004 43.4043)" fill="#FDF7F2" stroke="#CF956F" stroke-width="1.2625"/>
<path d="M55.2778 56.2699C57.2657 54.8971 61.2415 52.1516 61.2415 52.1516C62.0664 51.5952 63.1738 51.7224 63.851 52.4515L67.4737 56.3516C67.6545 56.5463 67.9552 56.5676 68.1616 56.4003L75.9082 50.1234C76.775 49.421 78.047 49.5543 78.7494 50.4211C78.7948 50.4771 78.8371 50.5355 78.8763 50.5961C78.8763 50.5961 83.4053 57.7826 84.4636 59.4618" stroke="#CF956F" stroke-width="1.2625" stroke-linecap="round"/>
</svg>
