<svg width="203" height="162" viewBox="0 0 203 162" fill="none" xmlns="http://www.w3.org/2000/svg">
<rect x="0.25" width="202.5" height="162" fill="white"/>
<path fill-rule="evenodd" clip-rule="evenodd" d="M167.92 52.6504C171.052 52.6504 173.59 55.1889 173.59 58.3204C173.59 61.4518 171.052 63.9904 167.92 63.9904H135.52C138.652 63.9904 141.19 66.5289 141.19 69.6604C141.19 72.7918 138.652 75.3304 135.52 75.3304H153.34C156.472 75.3304 159.01 77.8689 159.01 81.0004C159.01 84.1318 156.472 86.6704 153.34 86.6704H145.099C141.151 86.6704 137.95 89.2089 137.95 92.3404C137.95 94.428 139.57 96.318 142.81 98.0104C145.942 98.0104 148.48 100.549 148.48 103.68C148.48 106.812 145.942 109.35 142.81 109.35H75.5803C72.4489 109.35 69.9103 106.812 69.9103 103.68C69.9103 100.549 72.4489 98.0104 75.5803 98.0104H43.9903C40.8589 98.0104 38.3203 95.4718 38.3203 92.3404C38.3203 89.2089 40.8589 86.6704 43.9903 86.6704H76.3903C79.5218 86.6704 82.0603 84.1318 82.0603 81.0004C82.0603 77.8689 79.5218 75.3304 76.3903 75.3304H56.1403C53.0089 75.3304 50.4703 72.7918 50.4703 69.6604C50.4703 66.5289 53.0089 63.9904 56.1403 63.9904H88.5403C85.4089 63.9904 82.8703 61.4518 82.8703 58.3204C82.8703 55.1889 85.4089 52.6504 88.5403 52.6504H167.92ZM167.92 75.3304C171.052 75.3304 173.59 77.8689 173.59 81.0004C173.59 84.1318 171.052 86.6704 167.92 86.6704C164.789 86.6704 162.25 84.1318 162.25 81.0004C162.25 77.8689 164.789 75.3304 167.92 75.3304Z" fill="#FDF7F2"/>
<path fill-rule="evenodd" clip-rule="evenodd" d="M81.2035 107.886L82.4104 107.844V124.853C82.4104 125.238 82.7237 125.55 83.1102 125.55H125.101C125.487 125.55 125.8 125.238 125.8 124.853V66.5458C125.8 65.1344 124.652 63.9902 123.234 63.9902H84.9765C83.5593 63.9902 82.4104 65.1344 82.4104 66.5458V78.6696L81.2035 78.6278C81.0618 78.6229 80.9197 78.6205 80.7774 78.6205C73.459 78.6205 67.4805 85.1507 67.4805 93.257C67.4805 101.363 73.459 107.893 80.7774 107.893C80.9197 107.893 81.0618 107.891 81.2035 107.886ZM81.3373 102.295C81.1515 102.31 80.9648 102.318 80.7774 102.318C76.3601 102.318 72.8615 98.2232 72.8615 93.257C72.8615 88.2907 76.3601 84.1963 80.7774 84.1963C80.9648 84.1963 81.1515 84.2037 81.3373 84.2186L82.4104 84.3043V102.21L81.3373 102.295Z" fill="white" stroke="#CF956F" stroke-width="2.025" stroke-linejoin="round"/>
<path d="M119.32 68.9971V83.8349M119.32 88.4371V92.279V88.4371Z" stroke="#E9D7C7" stroke-width="2.025" stroke-linecap="round" stroke-linejoin="round"/>
<path d="M54.624 119.07H60.1904M146.964 119.07H149.29M130.66 119.07H143.157M65.0504 119.07H79.1882" stroke="#CF956F" stroke-width="2.025" stroke-linecap="round" stroke-linejoin="round"/>
<path d="M103.93 28.3496C101.77 31.7626 100.69 34.7326 100.69 37.2596C100.69 41.7601 104.46 43.7756 104.46 48.6506C104.46 51.1249 103.203 53.5817 100.69 56.0209" stroke="#E9D7C7" stroke-width="2.025" stroke-linecap="round"/>
<path d="M94.2102 37.2598C93.5034 41.725 96.6402 42.5509 96.6402 46.5542C96.6402 48.586 95.8302 50.6179 94.2102 52.6498" stroke="#E9D7C7" stroke-width="2.025" stroke-linecap="round"/>
<path d="M109.435 35.2148C108.365 37.9844 108.966 39.6725 109.435 40.6661C110.437 42.79 112.031 44.6234 112.031 46.7846C112.031 49.2948 111.165 51.7106 109.435 54.0319" stroke="#E9D7C7" stroke-width="2.025" stroke-linecap="round"/>
<path d="M85.2998 68.0405C85.2998 67.5931 85.6625 67.2305 86.1098 67.2305L101.5 67.2305V123.12H86.1098C85.6625 123.12 85.2998 122.758 85.2998 122.31V68.0405Z" fill="#F7F3EF"/>
</svg>
