<svg width="20" height="20" viewBox="0 0 20 20" fill="none" xmlns="http://www.w3.org/2000/svg">
<path d="M14 15.0003L19 10.0003M19 10.0003L14 5.00031M19 10.0003H7M10 15.0003C10 15.2959 10 15.4437 9.98901 15.5717C9.87482 16.9023 8.89486 17.9972 7.58503 18.2576C7.45903 18.2826 7.31202 18.299 7.01835 18.3316L5.99694 18.4451C4.46248 18.6156 3.69521 18.7008 3.08566 18.5058C2.27293 18.2457 1.60942 17.6518 1.26118 16.8728C1 16.2885 1 15.5165 1 13.9726V6.028C1 4.48407 1 3.71211 1.26118 3.12783C1.60942 2.34879 2.27293 1.75491 3.08566 1.49483C3.69521 1.29978 4.46246 1.38502 5.99694 1.55552L7.01835 1.66901C7.31212 1.70165 7.45901 1.71797 7.58503 1.74303C8.89486 2.00346 9.87482 3.09835 9.98901 4.42891C10 4.55694 10 4.70473 10 5.00031" stroke="#CF956F" stroke-width="1.5" stroke-linecap="round" stroke-linejoin="round"/>
</svg>
