<svg width="204" height="162" viewBox="0 0 204 162" fill="none" xmlns="http://www.w3.org/2000/svg">
<rect x="0.75" width="202.5" height="162" fill="white"/>
<path fill-rule="evenodd" clip-rule="evenodd" d="M51.7795 108.54H125.49C125.907 108.54 126.313 108.495 126.705 108.409C127.096 108.495 127.502 108.54 127.92 108.54H170.04C173.171 108.54 175.71 106.001 175.71 102.87C175.71 99.7384 173.171 97.1998 170.04 97.1998H165.18C162.048 97.1998 159.51 94.6613 159.51 91.5298C159.51 88.3984 162.048 85.8598 165.18 85.8598H180.57C183.701 85.8598 186.24 83.3213 186.24 80.1898C186.24 77.0584 183.701 74.5198 180.57 74.5198H162.75C165.881 74.5198 168.42 71.9813 168.42 68.8498C168.42 65.7184 165.881 63.1798 162.75 63.1798H110.91C114.041 63.1798 116.58 60.6413 116.58 57.5098C116.58 54.3784 114.041 51.8398 110.91 51.8398H64.7395C61.6081 51.8398 59.0695 54.3784 59.0695 57.5098C59.0695 60.6413 61.6081 63.1798 64.7395 63.1798H32.3395C29.2081 63.1798 26.6695 65.7184 26.6695 68.8498C26.6695 71.9813 29.2081 74.5198 32.3395 74.5198H52.5895C55.721 74.5198 58.2595 77.0584 58.2595 80.1898C58.2595 83.3213 55.721 85.8598 52.5895 85.8598H20.1895C17.0581 85.8598 14.5195 88.3984 14.5195 91.5298C14.5195 94.6613 17.0581 97.1998 20.1895 97.1998H51.7795C48.6481 97.1998 46.1095 99.7384 46.1095 102.87C46.1095 106.001 48.6481 108.54 51.7795 108.54ZM183.81 108.54C186.941 108.54 189.48 106.001 189.48 102.87C189.48 99.7384 186.941 97.1998 183.81 97.1998C180.678 97.1998 178.14 99.7384 178.14 102.87C178.14 106.001 180.678 108.54 183.81 108.54Z" fill="#FDF7F2"/>
<path d="M140.475 36.4512V41.3112" stroke="#E9D7C7" stroke-width="2.025" stroke-linecap="round" stroke-linejoin="round"/>
<path d="M140.475 47.791V52.651" stroke="#E9D7C7" stroke-width="2.025" stroke-linecap="round" stroke-linejoin="round"/>
<path d="M132.375 44.552H137.235" stroke="#E9D7C7" stroke-width="2.025" stroke-linecap="round" stroke-linejoin="round"/>
<path d="M143.715 44.552H148.575" stroke="#E9D7C7" stroke-width="2.025" stroke-linecap="round" stroke-linejoin="round"/>
<path d="M73.2429 119.879V123.119" stroke="#E9D7C7" stroke-width="2.025" stroke-linecap="round" stroke-linejoin="round"/>
<path d="M73.2429 129.6V132.84" stroke="#E9D7C7" stroke-width="2.025" stroke-linecap="round" stroke-linejoin="round"/>
<path d="M66.7637 126.359H70.0037" stroke="#E9D7C7" stroke-width="2.025" stroke-linecap="round" stroke-linejoin="round"/>
<path d="M76.4844 126.359H79.7244" stroke="#E9D7C7" stroke-width="2.025" stroke-linecap="round" stroke-linejoin="round"/>
<path fill-rule="evenodd" clip-rule="evenodd" d="M130.926 106.212C132.053 104.832 133.065 103.389 133.964 101.896C135.94 98.6122 137.364 95.084 138.235 91.4463C139.115 87.7674 139.429 83.9766 139.175 80.2133C138.952 76.9296 138.297 73.6668 137.207 70.5178C136.126 67.3936 134.617 64.3814 132.679 61.5715C131.524 59.8972 130.217 58.2947 128.758 56.7833C126.614 54.5642 124.264 52.6671 121.766 51.0931C119.082 49.4019 116.229 48.0837 113.281 47.1401C109.589 45.9582 105.749 45.3637 101.908 45.3594C98.9194 45.356 95.9307 45.71 93.0112 46.4225C89.7245 47.2247 86.5254 48.4814 83.5133 50.1945C80.8654 51.7004 78.362 53.559 76.0705 55.7716C73.1908 58.5522 70.8582 61.6867 69.0747 65.0412C67.3287 68.3254 66.1091 71.8206 65.4178 75.4012C64.7057 79.0902 64.5544 82.8698 64.9662 86.6028C65.4998 91.4411 66.9794 96.2012 69.4094 100.584C70.9643 103.388 72.9084 106.038 75.2429 108.455C78.949 112.293 83.2757 115.167 87.9099 117.073C93.5454 119.391 99.6355 120.276 105.617 119.717C110.636 119.249 115.58 117.763 120.113 115.254" fill="white"/>
<path d="M130.926 106.212C132.053 104.832 133.065 103.389 133.964 101.896C135.94 98.6122 137.364 95.084 138.235 91.4463C139.115 87.7674 139.429 83.9766 139.175 80.2133C138.952 76.9296 138.297 73.6668 137.207 70.5178C136.126 67.3936 134.617 64.3814 132.679 61.5715C131.524 59.8972 130.217 58.2947 128.758 56.7833C126.614 54.5642 124.264 52.6671 121.766 51.0931C119.082 49.4019 116.229 48.0837 113.281 47.1401C109.589 45.9582 105.749 45.3637 101.908 45.3594C98.9194 45.356 95.9307 45.71 93.0112 46.4225C89.7245 47.2247 86.5254 48.4814 83.5133 50.1945C80.8654 51.7004 78.362 53.559 76.0705 55.7716C73.1908 58.5522 70.8582 61.6867 69.0747 65.0412C67.3287 68.3254 66.1091 71.8206 65.4178 75.4012C64.7057 79.0902 64.5544 82.8698 64.9662 86.6028C65.4998 91.4411 66.9794 96.2012 69.4094 100.584C70.9643 103.388 72.9084 106.038 75.2429 108.455C78.949 112.293 83.2757 115.167 87.9099 117.073C93.5454 119.391 99.6355 120.276 105.617 119.717C110.636 119.249 115.58 117.763 120.113 115.254" stroke="#CF956F" stroke-width="2.025" stroke-linecap="round" stroke-linejoin="round"/>
<path fill-rule="evenodd" clip-rule="evenodd" d="M122.817 113.707C125.171 112.192 127.264 110.302 128.625 108.776L122.817 113.707Z" fill="white"/>
<path d="M122.817 113.707C125.171 112.192 127.264 110.302 128.625 108.776" stroke="#CF956F" stroke-width="2.025" stroke-linecap="round"/>
<path d="M136.02 84.7394C135.789 84.7435 135.557 84.7456 135.324 84.7456C114.869 84.7456 98.1195 68.7979 96.716 48.5996C80.4344 51.1678 67.9805 65.3282 67.9805 82.4118C67.9805 101.315 83.2291 116.64 102.039 116.64C120.071 116.64 134.83 102.557 136.02 84.7394Z" fill="#F7F3EF"/>
<path fill-rule="evenodd" clip-rule="evenodd" d="M89.0591 81.3013C88.0683 80.3863 86.5313 80.4566 85.6261 81.4583C84.721 82.4599 84.7905 84.0137 85.7813 84.9287L97.2177 95.4894C98.6049 96.7704 100.757 96.672 102.024 95.2697C102.077 95.2101 102.077 95.2101 102.128 95.1489L118.449 75.3063C119.307 74.2631 119.166 72.7143 118.134 71.847C117.102 70.9796 115.57 71.1221 114.712 72.1653L99.3677 90.8206L89.0591 81.3013Z" fill="white" stroke="#CF956F" stroke-width="2.025" stroke-linecap="round"/>
<path fill-rule="evenodd" clip-rule="evenodd" d="M90.518 52.1729C88.9384 52.7656 87.3954 53.4857 85.9047 54.3336C83.5883 55.6512 81.3982 57.2774 79.3935 59.2133C78.5718 60.0069 77.8009 60.8334 77.0811 61.6888M74.8536 64.6675C74.2812 65.5325 73.7544 66.4192 73.2733 67.3242C72.918 67.9926 72.5876 68.671 72.2822 69.358" fill="white"/>
<path d="M90.8737 53.1209C91.3972 52.9245 91.6624 52.3409 91.466 51.8173C91.2696 51.2937 90.686 51.0285 90.1624 51.225L90.8737 53.1209ZM85.9047 54.3336L86.4053 55.2137L85.9047 54.3336ZM79.3935 59.2133L78.6902 58.485L79.3935 59.2133ZM76.3064 61.0368C75.9463 61.4647 76.0013 62.1034 76.4291 62.4635C76.857 62.8235 77.4957 62.7686 77.8558 62.3407L76.3064 61.0368ZM75.6979 65.2263C76.0065 64.76 75.8787 64.1318 75.4123 63.8232C74.946 63.5146 74.3178 63.6424 74.0092 64.1088L75.6979 65.2263ZM73.2733 67.3242L74.1674 67.7994L73.2733 67.3242ZM71.357 68.9466C71.1298 69.4576 71.3599 70.0559 71.8708 70.2831C72.3818 70.5103 72.9802 70.2803 73.2074 69.7693L71.357 68.9466ZM90.1624 51.225C88.5332 51.8362 86.9417 52.5789 85.4041 53.4535L86.4053 55.2137C87.8491 54.3924 89.3436 53.695 90.8737 53.1209L90.1624 51.225ZM85.4041 53.4535C83.0146 54.8127 80.7564 56.4897 78.6902 58.485L80.0969 59.9416C82.0401 58.0651 84.1619 56.4897 86.4053 55.2137L85.4041 53.4535ZM78.6902 58.485C77.8433 59.3028 77.0486 60.1548 76.3064 61.0368L77.8558 62.3407C78.5532 61.5119 79.3002 60.7109 80.0969 59.9416L78.6902 58.485ZM74.0092 64.1088C73.4188 65.0009 72.8755 65.9155 72.3793 66.8489L74.1674 67.7994C74.6333 66.9229 75.1435 66.0641 75.6979 65.2263L74.0092 64.1088ZM72.3793 66.8489C72.0128 67.5383 71.6721 68.238 71.357 68.9466L73.2074 69.7693C73.5032 69.1039 73.8232 68.4468 74.1674 67.7994L72.3793 66.8489Z" fill="#E9D7C7"/>
</svg>
